<svg id="app" xmlns="http://www.w3.org/2000/svg" width="1800" height="1200" viewBox="0 0 1800 1200" role="img" aria-labelledby="svgTitle svgDesc">
  <title id="svgTitle">Flower Anatomy Drag and Drop</title>
  <desc id="svgDesc">A static SVG educational interface that simulates drag-and-drop label placement with internal links, layered visibility, and popup panels.</desc>

  <defs>
    <linearGradient id="bgGrad" x1="0" y1="0" x2="1" y2="1">
      <stop offset="0%" stop-color="#eef8f1"/>
      <stop offset="48%" stop-color="#f8fbff"/>
      <stop offset="100%" stop-color="#fff7ec"/>
    </linearGradient>
    <linearGradient id="cardGrad" x1="0" y1="0" x2="0" y2="1">
      <stop offset="0%" stop-color="#ffffff"/>
      <stop offset="100%" stop-color="#f5faf8"/>
    </linearGradient>
    <linearGradient id="panelGrad" x1="0" y1="0" x2="1" y2="1">
      <stop offset="0%" stop-color="#ffffff"/>
      <stop offset="100%" stop-color="#f3f7ff"/>
    </linearGradient>
    <linearGradient id="petalGrad" x1="0" y1="0" x2="1" y2="1">
      <stop offset="0%" stop-color="#ffd4e3"/>
      <stop offset="55%" stop-color="#f783ac"/>
      <stop offset="100%" stop-color="#d6336c"/>
    </linearGradient>
    <linearGradient id="petalGradAlt" x1="0" y1="0" x2="1" y2="1">
      <stop offset="0%" stop-color="#ffe3ec"/>
      <stop offset="55%" stop-color="#faa2c1"/>
      <stop offset="100%" stop-color="#e64980"/>
    </linearGradient>
    <linearGradient id="sepalGrad" x1="0" y1="0" x2="0" y2="1">
      <stop offset="0%" stop-color="#8ce99a"/>
      <stop offset="100%" stop-color="#2f9e44"/>
    </linearGradient>
    <linearGradient id="stemGrad" x1="0" y1="0" x2="1" y2="0">
      <stop offset="0%" stop-color="#2b8a3e"/>
      <stop offset="50%" stop-color="#66a80f"/>
      <stop offset="100%" stop-color="#2b8a3e"/>
    </linearGradient>
    <linearGradient id="pistilGrad" x1="0" y1="0" x2="0" y2="1">
      <stop offset="0%" stop-color="#fff3bf"/>
      <stop offset="100%" stop-color="#f4b942"/>
    </linearGradient>
    <radialGradient id="stigmaGrad" cx="45%" cy="35%" r="70%">
      <stop offset="0%" stop-color="#fff9db"/>
      <stop offset="70%" stop-color="#ffd43b"/>
      <stop offset="100%" stop-color="#f08c00"/>
    </radialGradient>
    <linearGradient id="tileGrad" x1="0" y1="0" x2="1" y2="1">
      <stop offset="0%" stop-color="#ffffff"/>
      <stop offset="100%" stop-color="#e7f5ff"/>
    </linearGradient>
    <linearGradient id="buttonGrad" x1="0" y1="0" x2="1" y2="1">
      <stop offset="0%" stop-color="#4dabf7"/>
      <stop offset="100%" stop-color="#1c7ed6"/>
    </linearGradient>
    <linearGradient id="popupGrad" x1="0" y1="0" x2="0" y2="1">
      <stop offset="0%" stop-color="#ffffff"/>
      <stop offset="100%" stop-color="#f1f8ff"/>
    </linearGradient>
    <filter id="softShadow" x="-20%" y="-20%" width="140%" height="150%">
      <feDropShadow dx="0" dy="12" stdDeviation="16" flood-color="#2b3a42" flood-opacity="0.14"/>
    </filter>
    <filter id="smallShadow" x="-20%" y="-30%" width="140%" height="170%">
      <feDropShadow dx="0" dy="5" stdDeviation="7" flood-color="#234" flood-opacity="0.16"/>
    </filter>
    <marker id="arrow" markerWidth="12" markerHeight="12" refX="10" refY="6" orient="auto" markerUnits="strokeWidth">
      <path d="M1,1 L11,6 L1,11 Z" fill="#61727d"/>
    </marker>
    <marker id="arrowActive" markerWidth="13" markerHeight="13" refX="11" refY="6.5" orient="auto" markerUnits="strokeWidth">
      <path d="M1,1 L12,6.5 L1,12 Z" fill="#1971c2"/>
    </marker>
    <marker id="pollenArrow" markerWidth="10" markerHeight="10" refX="8" refY="5" orient="auto" markerUnits="strokeWidth">
      <path d="M1,1 L9,5 L1,9 Z" fill="#e8890c"/>
    </marker>
    <style><![CDATA[
      .bgPattern { fill: none; stroke: #d9e8df; stroke-width: 1; opacity: .45; }
      .card { fill: url(#cardGrad); stroke: #d8e5df; stroke-width: 1.5; filter: url(#softShadow); }
      .panel { fill: url(#panelGrad); stroke: #d7e3ef; stroke-width: 1.5; filter: url(#softShadow); }
      .eyebrow { font: 700 15px 'Avenir Next','Segoe UI',Arial,sans-serif; letter-spacing: 3px; fill: #2f9e44; text-transform: uppercase; }
      .title { font: 800 46px 'Avenir Next','Segoe UI',Arial,sans-serif; fill: #16324f; letter-spacing: -.8px; }
      .subtitle { font: 400 18px 'Avenir Next','Segoe UI',Arial,sans-serif; fill: #587180; }
      .sectionTitle { font: 800 24px 'Avenir Next','Segoe UI',Arial,sans-serif; fill: #183153; }
      .body { font: 400 17px 'Avenir Next','Segoe UI',Arial,sans-serif; fill: #4b6673; }
      .small { font: 400 14px 'Avenir Next','Segoe UI',Arial,sans-serif; fill: #607a86; }
      .micro { font: 700 11px 'Avenir Next','Segoe UI',Arial,sans-serif; fill: #6f838d; letter-spacing: 1.2px; }
      .slotRect { fill: #ffffff; fill-opacity: .9; stroke: #7d98a6; stroke-width: 1.8; stroke-dasharray: 8 6; }
      .slotText { font: 700 15px 'Avenir Next','Segoe UI',Arial,sans-serif; fill: #667d88; letter-spacing: .6px; }
      .slotNum { font: 800 13px 'Avenir Next','Segoe UI',Arial,sans-serif; fill: #2f9e44; }
      .callout { fill: none; stroke: #61727d; stroke-width: 2.4; marker-end: url(#arrow); stroke-linecap: round; stroke-linejoin: round; opacity: .88; }
      .calloutActive { fill: none; stroke: #1971c2; stroke-width: 3.6; marker-end: url(#arrowActive); stroke-linecap: round; stroke-linejoin: round; }
      .placedRect { fill: #e7f5ff; stroke: #1971c2; stroke-width: 2.3; filter: url(#smallShadow); }
      .placedText { font: 800 16px 'Avenir Next','Segoe UI',Arial,sans-serif; fill: #0b4f8a; letter-spacing: .8px; }
      .placedBadge { font: 800 10px 'Avenir Next','Segoe UI',Arial,sans-serif; fill: #ffffff; letter-spacing: 1px; }
      .tile rect { fill: url(#tileGrad); stroke: #9ec9e8; stroke-width: 1.7; filter: url(#smallShadow); transition: opacity .15s ease; }
      .tile text { font: 800 18px 'Avenir Next','Segoe UI',Arial,sans-serif; fill: #17456b; letter-spacing: .5px; pointer-events: none; }
      .tile:hover rect, .tile:focus rect { stroke: #1971c2; stroke-width: 3; fill: #d0ebff; }
      a { cursor: pointer; }
      .button rect { fill: url(#buttonGrad); stroke: #1864ab; stroke-width: 1.5; filter: url(#smallShadow); }
      .button text { font: 800 17px 'Avenir Next','Segoe UI',Arial,sans-serif; fill: #ffffff; letter-spacing: .5px; pointer-events: none; }
      .button:hover rect, .button:focus rect { fill: #339af0; }
      .buttonSecondary rect { fill: #ffffff; stroke: #74c0fc; }
      .buttonSecondary text { fill: #1864ab; }
      .closeCircle { fill: #e7f5ff; stroke: #74c0fc; stroke-width: 1.5; }
      .closeX { font: 800 22px Arial,sans-serif; fill: #1864ab; pointer-events: none; }
      .popup { display: none; }
      .popup:target { display: inline; }
      .placed { display: none; }
      .placed:target { display: inline; }
      .popupShade { fill: #102a43; opacity: .48; }
      .popupCard { fill: url(#popupGrad); stroke: #9ec9e8; stroke-width: 2; filter: url(#softShadow); }
      .answerKey { font: 600 17px 'Avenir Next','Segoe UI',Arial,sans-serif; fill: #244a61; }
      .answerNum { font: 800 16px 'Avenir Next','Segoe UI',Arial,sans-serif; fill: #1971c2; }
      .flowerLine { stroke: #263238; stroke-width: 2.2; stroke-linejoin: round; stroke-linecap: round; }
      .anther { fill: #ffd43b; stroke: #b26a00; stroke-width: 2; }
      .pollen { fill: #ffd43b; stroke: #e8890c; stroke-width: 1; }
      .miniLabel { font: 700 12px 'Avenir Next','Segoe UI',Arial,sans-serif; fill: #4c6572; }
      .stepCircle { fill: #d0ebff; stroke: #74c0fc; stroke-width: 1.5; }
      .stepNum { font: 800 15px 'Avenir Next','Segoe UI',Arial,sans-serif; fill: #1864ab; }
      .insetArrow { fill: none; stroke: #e8890c; stroke-width: 2.5; marker-end: url(#pollenArrow); stroke-linecap: round; }
    ]]></style>
  </defs>

  <rect width="1800" height="1200" fill="url(#bgGrad)"/>
  <g opacity="0.45">
    <path class="bgPattern" d="M0 118 H1800 M0 238 H1800 M0 358 H1800 M0 478 H1800 M0 598 H1800 M0 718 H1800 M0 838 H1800 M0 958 H1800 M0 1078 H1800"/>
    <path class="bgPattern" d="M120 0 V1200 M300 0 V1200 M480 0 V1200 M660 0 V1200 M840 0 V1200 M1020 0 V1200 M1200 0 V1200 M1380 0 V1200 M1560 0 V1200"/>
  </g>
  <circle cx="1670" cy="95" r="130" fill="#ffe8cc" opacity=".42"/>
  <circle cx="90" cy="1110" r="155" fill="#d3f9d8" opacity=".35"/>

  <g id="header">
    <text class="eyebrow" x="70" y="45">Interactive botany · static SVG edition</text>
    <text class="title" x="70" y="94">Flower Anatomy Drag &amp; Drop</text>
    <text class="subtitle" x="1015" y="88">Identify ten structures and connect each term to the diagram.</text>
  </g>

  <g id="main-layout">
    <g id="diagram-card">
      <rect class="card" x="55" y="130" width="1065" height="775" rx="34"/>
      <text class="micro" x="88" y="168">DIAGRAM AREA</text>
      <text class="sectionTitle" x="88" y="199">Match each structure</text>
      <text class="small" x="470" y="199">Select a word-bank tile to reveal its matching label layer.</text>

      <g id="flower-illustration" aria-label="Vector illustration of a complete flower">
        <path d="M650 531 C633 625 674 718 651 838" fill="none" stroke="url(#stemGrad)" stroke-width="19" stroke-linecap="round"/>
        <path d="M650 531 C633 625 674 718 651 838" fill="none" stroke="#1b5e20" stroke-width="2.4" stroke-linecap="round" opacity=".5"/>
        <path d="M646 680 C570 630 493 650 445 731 C530 754 604 736 651 690 Z" fill="url(#sepalGrad)" class="flowerLine"/>
        <path d="M654 720 C735 672 814 695 858 780 C767 801 696 777 650 731 Z" fill="url(#sepalGrad)" class="flowerLine"/>
        <path d="M618 670 C575 680 535 705 502 730" fill="none" stroke="#d3f9d8" stroke-width="3" opacity=".75"/>
        <path d="M690 718 C735 728 775 752 810 779" fill="none" stroke="#d3f9d8" stroke-width="3" opacity=".75"/>

        <g id="sepals" aria-label="Sepals">
          <path d="M650 458 C616 491 584 528 548 563 C601 560 640 528 663 478 Z" fill="url(#sepalGrad)" class="flowerLine"/>
          <path d="M650 458 C684 491 716 528 752 563 C699 560 660 528 637 478 Z" fill="url(#sepalGrad)" class="flowerLine"/>
          <path d="M650 456 C623 510 625 554 650 594 C675 554 677 510 650 456 Z" fill="url(#sepalGrad)" class="flowerLine"/>
        </g>

        <g id="petals" aria-label="Petals">
          <path d="M650 413 C612 363 590 292 650 218 C710 292 688 363 650 413 Z" fill="url(#petalGrad)" class="flowerLine"/>
          <path d="M641 410 C570 391 503 344 471 270 C564 268 628 326 662 405 Z" fill="url(#petalGradAlt)" class="flowerLine"/>
          <path d="M659 410 C730 391 797 344 829 270 C736 268 672 326 638 405 Z" fill="url(#petalGradAlt)" class="flowerLine"/>
          <path d="M639 422 C558 443 499 493 472 573 C567 572 628 511 662 429 Z" fill="url(#petalGrad)" class="flowerLine"/>
          <path d="M661 422 C742 443 801 493 828 573 C733 572 672 511 638 429 Z" fill="url(#petalGrad)" class="flowerLine"/>
          <path d="M650 425 C600 477 609 553 650 612 C691 553 700 477 650 425 Z" fill="url(#petalGradAlt)" class="flowerLine"/>
          <path d="M650 243 C657 300 657 357 650 402" fill="none" stroke="#fff0f6" stroke-width="3" opacity=".7"/>
          <path d="M508 293 C558 329 606 367 646 404" fill="none" stroke="#fff0f6" stroke-width="3" opacity=".65"/>
          <path d="M792 293 C742 329 694 367 654 404" fill="none" stroke="#fff0f6" stroke-width="3" opacity=".65"/>
        </g>

        <g id="stamens" aria-label="Stamens">
          <path d="M650 470 C625 421 601 361 583 315" fill="none" stroke="#5f3dc4" stroke-width="5" stroke-linecap="round"/>
          <path d="M650 470 C636 410 624 343 615 292" fill="none" stroke="#5f3dc4" stroke-width="5" stroke-linecap="round"/>
          <path d="M650 470 C665 407 678 343 688 292" fill="none" stroke="#5f3dc4" stroke-width="5" stroke-linecap="round"/>
          <path d="M650 470 C676 418 700 360 718 316" fill="none" stroke="#5f3dc4" stroke-width="5" stroke-linecap="round"/>
          <path d="M650 470 C613 427 582 391 558 365" fill="none" stroke="#7048e8" stroke-width="4.4" stroke-linecap="round"/>
          <path d="M650 470 C687 427 718 391 742 365" fill="none" stroke="#7048e8" stroke-width="4.4" stroke-linecap="round"/>
          <ellipse class="anther" cx="581" cy="304" rx="18" ry="29" transform="rotate(-20 581 304)"/>
          <ellipse class="anther" cx="614" cy="280" rx="18" ry="30" transform="rotate(-8 614 280)"/>
          <ellipse class="anther" cx="689" cy="280" rx="18" ry="30" transform="rotate(8 689 280)"/>
          <ellipse class="anther" cx="721" cy="304" rx="18" ry="29" transform="rotate(20 721 304)"/>
          <ellipse class="anther" cx="552" cy="355" rx="15" ry="25" transform="rotate(-39 552 355)"/>
          <ellipse class="anther" cx="748" cy="355" rx="15" ry="25" transform="rotate(39 748 355)"/>
          <circle class="pollen" cx="573" cy="271" r="4"/>
          <circle class="pollen" cx="598" cy="250" r="3.5"/>
          <circle class="pollen" cx="703" cy="250" r="3.5"/>
          <circle class="pollen" cx="731" cy="274" r="4"/>
        </g>

        <g id="pistil" aria-label="Pistil">
          <ellipse cx="650" cy="477" rx="44" ry="59" fill="url(#pistilGrad)" class="flowerLine"/>
          <ellipse cx="650" cy="478" rx="19" ry="29" fill="#fff9db" stroke="#c47f17" stroke-width="1.7" opacity=".9"/>
          <circle cx="650" cy="479" r="7" fill="#f08c00"/>
          <path d="M650 425 C647 386 647 335 650 297" fill="none" stroke="#e8a317" stroke-width="15" stroke-linecap="round"/>
          <path d="M650 425 C647 386 647 335 650 297" fill="none" stroke="#8a5a00" stroke-width="2" stroke-linecap="round" opacity=".55"/>
          <path d="M650 269 C632 250 638 226 659 228 C666 207 693 212 694 235 C716 239 714 267 693 272 C684 291 657 290 650 269 Z" fill="url(#stigmaGrad)" class="flowerLine"/>
          <circle cx="651" cy="250" r="5" fill="#fff3bf" opacity=".8"/>
          <circle cx="673" cy="244" r="4" fill="#fff3bf" opacity=".75"/>
        </g>

        <g id="receptacle" aria-label="Receptacle">
          <path d="M595 535 C611 506 689 506 705 535 C703 566 678 584 650 584 C622 584 597 566 595 535 Z" fill="#69db7c" class="flowerLine"/>
          <path d="M611 537 C634 549 666 549 689 537" fill="none" stroke="#2b8a3e" stroke-width="3" opacity=".65"/>
        </g>
      </g>

      <g id="empty-label-slots" aria-label="Empty target slots">
        <g id="slot-petal">
          <path class="callout" d="M305 244 H365 C405 244 420 285 456 309 L506 342"/>
          <rect class="slotRect" x="105" y="218" width="200" height="52" rx="16"/>
          <text class="slotNum" x="124" y="250">01</text>
          <text class="slotText" x="155" y="251">__________</text>
        </g>
        <g id="slot-sepal">
          <path class="callout" d="M305 349 H374 C427 349 450 446 507 490 L548 519"/>
          <rect class="slotRect" x="105" y="323" width="200" height="52" rx="16"/>
          <text class="slotNum" x="124" y="355">02</text>
          <text class="slotText" x="155" y="356">__________</text>
        </g>
        <g id="slot-stamen">
          <path class="callout" d="M305 454 H382 C441 454 479 352 536 330 L561 320"/>
          <rect class="slotRect" x="105" y="428" width="200" height="52" rx="16"/>
          <text class="slotNum" x="124" y="460">03</text>
          <text class="slotText" x="155" y="461">__________</text>
        </g>
        <g id="slot-filament">
          <path class="callout" d="M305 559 H385 C456 559 495 458 560 415 L606 385"/>
          <rect class="slotRect" x="105" y="533" width="200" height="52" rx="16"/>
          <text class="slotNum" x="124" y="565">04</text>
          <text class="slotText" x="155" y="566">__________</text>
        </g>
        <g id="slot-receptacle">
          <path class="callout" d="M305 664 H405 C492 664 518 575 575 553 L604 542"/>
          <rect class="slotRect" x="105" y="638" width="200" height="52" rx="16"/>
          <text class="slotNum" x="124" y="670">05</text>
          <text class="slotText" x="155" y="671">__________</text>
        </g>
        <g id="slot-pistil">
          <path class="callout" d="M865 244 H813 C770 244 750 317 722 361 L696 399"/>
          <rect class="slotRect" x="865" y="218" width="200" height="52" rx="16"/>
          <text class="slotNum" x="884" y="250">06</text>
          <text class="slotText" x="915" y="251">__________</text>
        </g>
        <g id="slot-anther">
          <path class="callout" d="M865 349 H808 C770 349 750 303 735 290"/>
          <rect class="slotRect" x="865" y="323" width="200" height="52" rx="16"/>
          <text class="slotNum" x="884" y="355">07</text>
          <text class="slotText" x="915" y="356">__________</text>
        </g>
        <g id="slot-ovary">
          <path class="callout" d="M865 454 H805 C754 454 736 476 696 478"/>
          <rect class="slotRect" x="865" y="428" width="200" height="52" rx="16"/>
          <text class="slotNum" x="884" y="460">08</text>
          <text class="slotText" x="915" y="461">__________</text>
        </g>
        <g id="slot-style">
          <path class="callout" d="M865 559 H802 C747 559 720 431 677 379"/>
          <rect class="slotRect" x="865" y="533" width="200" height="52" rx="16"/>
          <text class="slotNum" x="884" y="565">09</text>
          <text class="slotText" x="915" y="566">__________</text>
        </g>
        <g id="slot-stigma">
          <path class="callout" d="M865 664 H790 C723 664 703 350 683 284"/>
          <rect class="slotRect" x="865" y="638" width="200" height="52" rx="16"/>
          <text class="slotNum" x="884" y="670">10</text>
          <text class="slotText" x="915" y="671">__________</text>
        </g>
      </g>

      <g id="placed-petal" class="placed">
        <path class="calloutActive" d="M305 244 H365 C405 244 420 285 456 309 L506 342"/>
        <rect class="placedRect" x="105" y="218" width="200" height="52" rx="16"/>
        <rect x="244" y="226" width="52" height="16" rx="8" fill="#1971c2"/>
        <text class="placedBadge" x="253" y="238">PLACED</text>
        <text class="slotNum" x="124" y="250">01</text>
        <text class="placedText" x="155" y="252">PETAL</text>
      </g>
      <g id="placed-sepal" class="placed">
        <path class="calloutActive" d="M305 349 H374 C427 349 450 446 507 490 L548 519"/>
        <rect class="placedRect" x="105" y="323" width="200" height="52" rx="16"/>
        <rect x="244" y="331" width="52" height="16" rx="8" fill="#1971c2"/>
        <text class="placedBadge" x="253" y="343">PLACED</text>
        <text class="slotNum" x="124" y="355">02</text>
        <text class="placedText" x="155" y="357">SEPAL</text>
      </g>
      <g id="placed-stamen" class="placed">
        <path class="calloutActive" d="M305 454 H382 C441 454 479 352 536 330 L561 320"/>
        <rect class="placedRect" x="105" y="428" width="200" height="52" rx="16"/>
        <rect x="244" y="436" width="52" height="16" rx="8" fill="#1971c2"/>
        <text class="placedBadge" x="253" y="448">PLACED</text>
        <text class="slotNum" x="124" y="460">03</text>
        <text class="placedText" x="155" y="462">STAMEN</text>
      </g>
      <g id="placed-filament" class="placed">
        <path class="calloutActive" d="M305 559 H385 C456 559 495 458 560 415 L606 385"/>
        <rect class="placedRect" x="105" y="533" width="200" height="52" rx="16"/>
        <rect x="244" y="541" width="52" height="16" rx="8" fill="#1971c2"/>
        <text class="placedBadge" x="253" y="553">PLACED</text>
        <text class="slotNum" x="124" y="565">04</text>
        <text class="placedText" x="155" y="567">FILAMENT</text>
      </g>
      <g id="placed-receptacle" class="placed">
        <path class="calloutActive" d="M305 664 H405 C492 664 518 575 575 553 L604 542"/>
        <rect class="placedRect" x="105" y="638" width="200" height="52" rx="16"/>
        <rect x="244" y="646" width="52" height="16" rx="8" fill="#1971c2"/>
        <text class="placedBadge" x="253" y="658">PLACED</text>
        <text class="slotNum" x="124" y="670">05</text>
        <text class="placedText" x="155" y="672">RECEPTACLE</text>
      </g>
      <g id="placed-pistil" class="placed">
        <path class="calloutActive" d="M865 244 H813 C770 244 750 317 722 361 L696 399"/>
        <rect class="placedRect" x="865" y="218" width="200" height="52" rx="16"/>
        <rect x="1004" y="226" width="52" height="16" rx="8" fill="#1971c2"/>
        <text class="placedBadge" x="1013" y="238">PLACED</text>
        <text class="slotNum" x="884" y="250">06</text>
        <text class="placedText" x="915" y="252">PISTIL</text>
      </g>
      <g id="placed-anther" class="placed">
        <path class="calloutActive" d="M865 349 H808 C770 349 750 303 735 290"/>
        <rect class="placedRect" x="865" y="323" width="200" height="52" rx="16"/>
        <rect x="1004" y="331" width="52" height="16" rx="8" fill="#1971c2"/>
        <text class="placedBadge" x="1013" y="343">PLACED</text>
        <text class="slotNum" x="884" y="355">07</text>
        <text class="placedText" x="915" y="357">ANTHER</text>
      </g>
      <g id="placed-ovary" class="placed">
        <path class="calloutActive" d="M865 454 H805 C754 454 736 476 696 478"/>
        <rect class="placedRect" x="865" y="428" width="200" height="52" rx="16"/>
        <rect x="1004" y="436" width="52" height="16" rx="8" fill="#1971c2"/>
        <text class="placedBadge" x="1013" y="448">PLACED</text>
        <text class="slotNum" x="884" y="460">08</text>
        <text class="placedText" x="915" y="462">OVARY</text>
      </g>
      <g id="placed-style" class="placed">
        <path class="calloutActive" d="M865 559 H802 C747 559 720 431 677 379"/>
        <rect class="placedRect" x="865" y="533" width="200" height="52" rx="16"/>
        <rect x="1004" y="541" width="52" height="16" rx="8" fill="#1971c2"/>
        <text class="placedBadge" x="1013" y="553">PLACED</text>
        <text class="slotNum" x="884" y="565">09</text>
        <text class="placedText" x="915" y="567">STYLE</text>
      </g>
      <g id="placed-stigma" class="placed">
        <path class="calloutActive" d="M865 664 H790 C723 664 703 350 683 284"/>
        <rect class="placedRect" x="865" y="638" width="200" height="52" rx="16"/>
        <rect x="1004" y="646" width="52" height="16" rx="8" fill="#1971c2"/>
        <text class="placedBadge" x="1013" y="658">PLACED</text>
        <text class="slotNum" x="884" y="670">10</text>
        <text class="placedText" x="915" y="672">STIGMA</text>
      </g>
    </g>

    <g id="instruction-panel">
      <rect class="panel" x="1135" y="130" width="610" height="775" rx="34"/>
      <text class="micro" x="1172" y="168">INSTRUCTIONS</text>
      <text class="sectionTitle" x="1172" y="199">How to play</text>

      <g transform="translate(1172 228)">
        <circle class="stepCircle" cx="17" cy="17" r="17"/>
        <text class="stepNum" x="13" y="22">1</text>
        <text class="body" x="48" y="22">Choose a label tile from the word bank.</text>
        <circle class="stepCircle" cx="17" cy="64" r="17"/>
        <text class="stepNum" x="13" y="69">2</text>
        <text class="body" x="48" y="69">The term appears in its matching slot.</text>
        <circle class="stepCircle" cx="17" cy="111" r="17"/>
        <text class="stepNum" x="13" y="116">3</text>
        <text class="body" x="48" y="116">Follow the arrow to identify the flower part.</text>
        <circle class="stepCircle" cx="17" cy="158" r="17"/>
        <text class="stepNum" x="13" y="163">4</text>
        <text class="body" x="48" y="163">Use the buttons below for support.</text>
      </g>

      <g id="controls" transform="translate(1172 426)">
        <a href="#popup-hint" aria-label="Open hint popup">
          <g class="button">
            <rect x="0" y="0" width="165" height="52" rx="16"/>
            <text x="57" y="33">HINT</text>
          </g>
        </a>
        <a href="#popup-check" aria-label="Open answer key popup">
          <g class="button">
            <rect x="181" y="0" width="196" height="52" rx="16"/>
            <text x="215" y="33">CHECK ANSWER</text>
          </g>
        </a>
        <a href="#popup-reset" aria-label="Open reset popup">
          <g class="button buttonSecondary">
            <rect x="393" y="0" width="143" height="52" rx="16"/>
            <text x="436" y="33">RESET</text>
          </g>
        </a>
      </g>

      <g id="pollination-inset" transform="translate(1168 510)">
        <rect x="0" y="0" width="544" height="350" rx="26" fill="#fffdf7" stroke="#eed9a4" stroke-width="1.6"/>
        <text class="micro" x="24" y="35">EXTRA INSET</text>
        <text class="sectionTitle" x="24" y="67" font-size="22">Pollination pathway</text>
        <text class="small" x="24" y="94">Pollen moves from an anther to a stigma, often with a pollinator.</text>

        <g transform="translate(50 145)">
          <path d="M48 122 C42 91 45 62 50 34" fill="none" stroke="#2f9e44" stroke-width="7" stroke-linecap="round"/>
          <path d="M49 84 C25 72 10 82 2 105 C26 111 43 102 51 88 Z" fill="#69db7c" stroke="#2b8a3e" stroke-width="1.5"/>
          <path d="M50 38 C22 22 17 -10 48 -24 C61 6 62 23 50 38 Z" fill="#f783ac" stroke="#8a2846" stroke-width="1.5"/>
          <path d="M50 38 C78 22 83 -10 52 -24 C39 6 38 23 50 38 Z" fill="#faa2c1" stroke="#8a2846" stroke-width="1.5"/>
          <circle cx="50" cy="28" r="13" fill="#ffd43b" stroke="#b26a00" stroke-width="1.5"/>
          <circle class="pollen" cx="42" cy="20" r="3"/>
          <circle class="pollen" cx="58" cy="20" r="3"/>
          <text class="miniLabel" x="19" y="150">Flower A</text>
          <text class="miniLabel" x="13" y="166">anther releases pollen</text>
        </g>

        <g transform="translate(248 125)">
          <ellipse cx="46" cy="39" rx="31" ry="20" fill="#ffd43b" stroke="#8a5a00" stroke-width="1.7"/>
          <path d="M24 28 C8 5 35 -1 43 22 Z" fill="#e7f5ff" stroke="#74c0fc" stroke-width="1.5" opacity=".85"/>
          <path d="M56 22 C63 -2 91 8 68 29 Z" fill="#e7f5ff" stroke="#74c0fc" stroke-width="1.5" opacity=".85"/>
          <path d="M30 20 V58 M45 18 V61 M60 22 V57" stroke="#343a40" stroke-width="4" stroke-linecap="round"/>
          <circle cx="77" cy="38" r="10" fill="#343a40"/>
          <circle class="pollen" cx="17" cy="55" r="3"/>
          <circle class="pollen" cx="74" cy="55" r="3"/>
          <text class="miniLabel" x="14" y="97">pollinator</text>
        </g>

        <g transform="translate(410 145)">
          <path d="M50 122 C56 91 55 62 50 34" fill="none" stroke="#2f9e44" stroke-width="7" stroke-linecap="round"/>
          <path d="M51 86 C76 72 92 84 99 107 C75 113 57 103 49 90 Z" fill="#69db7c" stroke="#2b8a3e" stroke-width="1.5"/>
          <path d="M50 39 C24 22 17 -11 48 -25 C62 4 62 24 50 39 Z" fill="#f783ac" stroke="#8a2846" stroke-width="1.5"/>
          <path d="M50 39 C76 22 83 -11 52 -25 C38 4 38 24 50 39 Z" fill="#faa2c1" stroke="#8a2846" stroke-width="1.5"/>
          <path d="M50 43 C46 18 47 0 50 -16" stroke="#e8a317" stroke-width="6" stroke-linecap="round"/>
          <circle cx="50" cy="-20" r="11" fill="#ffd43b" stroke="#8a5a00" stroke-width="1.5"/>
          <text class="miniLabel" x="20" y="150">Flower B</text>
          <text class="miniLabel" x="5" y="166">stigma receives pollen</text>
        </g>

        <path class="insetArrow" d="M118 151 C165 105 207 99 249 131"/>
        <path class="insetArrow" d="M337 134 C381 103 419 106 456 145"/>
        <path class="insetArrow" d="M486 214 C483 257 474 286 462 306"/>
        <circle class="pollen" cx="183" cy="110" r="4"/>
        <circle class="pollen" cx="379" cy="112" r="4"/>
        <circle class="pollen" cx="472" cy="261" r="4"/>
        <text class="miniLabel" x="141" y="105">1</text>
        <text class="miniLabel" x="363" y="105">2</text>
        <text class="miniLabel" x="491" y="267">3</text>
      </g>
    </g>
  </g>

  <g id="word-bank">
    <rect class="panel" x="55" y="925" width="1690" height="235" rx="34"/>
    <text class="micro" x="90" y="963">WORD BANK</text>
    <text class="sectionTitle" x="90" y="994">Choose a tile to place it</text>
    <text class="small" x="1538" y="973" text-anchor="end">10 terms</text>

    <g transform="translate(90 1017)">
      <a href="#placed-petal" aria-label="Place petal">
        <g class="tile">
          <rect x="0" y="0" width="290" height="56" rx="18"/>
          <text x="145" y="36" text-anchor="middle">PETAL</text>
        </g>
      </a>
      <a href="#placed-sepal" aria-label="Place sepal">
        <g class="tile">
          <rect x="315" y="0" width="290" height="56" rx="18"/>
          <text x="460" y="36" text-anchor="middle">SEPAL</text>
        </g>
      </a>
      <a href="#placed-stamen" aria-label="Place stamen">
        <g class="tile">
          <rect x="630" y="0" width="290" height="56" rx="18"/>
          <text x="775" y="36" text-anchor="middle">STAMEN</text>
        </g>
      </a>
      <a href="#placed-pistil" aria-label="Place pistil">
        <g class="tile">
          <rect x="945" y="0" width="290" height="56" rx="18"/>
          <text x="1090" y="36" text-anchor="middle">PISTIL</text>
        </g>
      </a>
      <a href="#placed-anther" aria-label="Place anther">
        <g class="tile">
          <rect x="1260" y="0" width="290" height="56" rx="18"/>
          <text x="1405" y="36" text-anchor="middle">ANTHER</text>
        </g>
      </a>

      <a href="#placed-filament" aria-label="Place filament">
        <g class="tile">
          <rect x="0" y="76" width="290" height="56" rx="18"/>
          <text x="145" y="112" text-anchor="middle">FILAMENT</text>
        </g>
      </a>
      <a href="#placed-ovary" aria-label="Place ovary">
        <g class="tile">
          <rect x="315" y="76" width="290" height="56" rx="18"/>
          <text x="460" y="112" text-anchor="middle">OVARY</text>
        </g>
      </a>
      <a href="#placed-style" aria-label="Place style">
        <g class="tile">
          <rect x="630" y="76" width="290" height="56" rx="18"/>
          <text x="775" y="112" text-anchor="middle">STYLE</text>
        </g>
      </a>
      <a href="#placed-stigma" aria-label="Place stigma">
        <g class="tile">
          <rect x="945" y="76" width="290" height="56" rx="18"/>
          <text x="1090" y="112" text-anchor="middle">STIGMA</text>
        </g>
      </a>
      <a href="#placed-receptacle" aria-label="Place receptacle">
        <g class="tile">
          <rect x="1260" y="76" width="290" height="56" rx="18"/>
          <text x="1405" y="112" text-anchor="middle">RECEPTACLE</text>
        </g>
      </a>
    </g>
  </g>

  <g id="popup-hint" class="popup" aria-label="Hint popup">
    <rect class="popupShade" width="1800" height="1200"/>
    <rect class="popupCard" x="470" y="295" width="860" height="520" rx="30"/>
    <text class="micro" x="515" y="345">HINT</text>
    <text class="sectionTitle" x="515" y="382" font-size="30">Use the flower’s organization</text>
    <text class="body" x="515" y="425">• The pistil is the female reproductive organ.</text>
    <text class="body" x="515" y="462">• Its parts run from top to bottom: stigma → style → ovary.</text>
    <text class="body" x="515" y="499">• The stamen is the male reproductive organ.</text>
    <text class="body" x="515" y="536">• Each stamen has an anther supported by a filament.</text>
    <text class="body" x="515" y="573">• Sepals protect the bud, while the receptacle anchors the flower.</text>
    <rect x="515" y="625" width="770" height="92" rx="20" fill="#e7f5ff" stroke="#a5d8ff"/>
    <text class="answerKey" x="545" y="661">Memory cue:</text>
    <text class="body" x="545" y="692">Showy petals attract pollinators; green sepals cover the developing bud.</text>
    <a href="#app" aria-label="Close hint popup">
      <g>
        <circle class="closeCircle" cx="1281" cy="344" r="24"/>
        <text class="closeX" x="1273" y="352">×</text>
      </g>
    </a>
  </g>

  <g id="popup-check" class="popup" aria-label="Answer key popup">
    <rect class="popupShade" width="1800" height="1200"/>
    <rect class="popupCard" x="355" y="205" width="1090" height="720" rx="32"/>
    <text class="micro" x="405" y="255">CHECK ANSWER</text>
    <text class="sectionTitle" x="405" y="294" font-size="32">Correct placement key</text>
    <text class="body" x="405" y="328">Match the slot numbers to the structures below.</text>

    <g transform="translate(405 365)">
      <rect x="0" y="0" width="485" height="455" rx="22" fill="#ffffff" stroke="#d0ebff"/>
      <text class="answerNum" x="28" y="45">01</text><text class="answerKey" x="82" y="45">Petal — colorful blade that attracts pollinators</text>
      <text class="answerNum" x="28" y="88">02</text><text class="answerKey" x="82" y="88">Sepal — leaflike protection at the base</text>
      <text class="answerNum" x="28" y="131">03</text><text class="answerKey" x="82" y="131">Stamen — male reproductive organ</text>
      <text class="answerNum" x="28" y="174">04</text><text class="answerKey" x="82" y="174">Filament — slender stalk of the stamen</text>
      <text class="answerNum" x="28" y="217">05</text><text class="answerKey" x="82" y="217">Receptacle — enlarged tip where parts attach</text>
      <text class="answerNum" x="28" y="282">06</text><text class="answerKey" x="82" y="282">Pistil — female reproductive organ</text>
      <text class="answerNum" x="28" y="325">07</text><text class="answerKey" x="82" y="325">Anther — pollen-producing sac</text>
      <text class="answerNum" x="28" y="368">08</text><text class="answerKey" x="82" y="368">Ovary — enlarged base containing ovules</text>
      <text class="answerNum" x="28" y="411">09</text><text class="answerKey" x="82" y="411">Style — stalk connecting stigma and ovary</text>
    </g>

    <g transform="translate(930 365)">
      <rect x="0" y="0" width="465" height="455" rx="22" fill="#ffffff" stroke="#d0ebff"/>
      <text class="answerNum" x="28" y="45">10</text><text class="answerKey" x="82" y="45">Stigma — sticky tip that catches pollen</text>
      <path d="M65 150 C98 107 151 103 185 145 C218 104 274 110 302 154 C331 118 381 131 395 175" fill="none" stroke="#f783ac" stroke-width="18" stroke-linecap="round" opacity=".55"/>
      <path d="M230 342 C222 292 225 241 230 193" fill="none" stroke="#2f9e44" stroke-width="10" stroke-linecap="round"/>
      <ellipse cx="230" cy="295" rx="32" ry="45" fill="#ffd43b" stroke="#8a5a00" stroke-width="2"/>
      <path d="M230 252 C228 224 228 198 230 176" stroke="#e8a317" stroke-width="9" stroke-linecap="round"/>
      <circle cx="230" cy="166" r="17" fill="#ffd43b" stroke="#8a5a00" stroke-width="2"/>
      <path d="M230 252 C205 219 190 197 178 180" stroke="#5f3dc4" stroke-width="4"/>
      <path d="M230 252 C255 219 270 197 282 180" stroke="#5f3dc4" stroke-width="4"/>
      <ellipse cx="176" cy="174" rx="13" ry="20" fill="#ffd43b" stroke="#8a5a00" stroke-width="1.5"/>
      <ellipse cx="284" cy="174" rx="13" ry="20" fill="#ffd43b" stroke="#8a5a00" stroke-width="1.5"/>
      <path d="M192 344 C208 326 252 326 268 344 C263 365 247 375 230 375 C213 375 197 365 192 344 Z" fill="#69db7c" stroke="#2b8a3e" stroke-width="2"/>
      <text class="miniLabel" x="230" y="410" text-anchor="middle">stigma → style → ovary</text>
      <text class="miniLabel" x="230" y="436" text-anchor="middle">anther + filament = stamen</text>
    </g>

    <a href="#app" aria-label="Close answer key popup">
      <g>
        <circle class="closeCircle" cx="1394" cy="255" r="24"/>
        <text class="closeX" x="1386" y="263">×</text>
      </g>
    </a>
  </g>

  <g id="popup-reset" class="popup" aria-label="Reset popup">
    <rect class="popupShade" width="1800" height="1200"/>
    <rect class="popupCard" x="570" y="355" width="660" height="390" rx="30"/>
    <text class="micro" x="620" y="405">RESET</text>
    <text class="sectionTitle" x="620" y="444" font-size="31">Start with a blank board?</text>
    <text class="body" x="620" y="490">This clears the currently revealed label layer and closes this panel.</text>
    <text class="body" x="620" y="526">The diagram and word bank remain ready for another round.</text>
    <a href="#app" aria-label="Reset the board">
      <g class="button">
        <rect x="620" y="585" width="210" height="58" rx="18"/>
        <text x="670" y="621">RESET BOARD</text>
      </g>
    </a>
    <a href="#app" aria-label="Close reset popup">
      <g class="button buttonSecondary">
        <rect x="850" y="585" width="170" height="58" rx="18"/>
        <text x="904" y="621">CLOSE</text>
      </g>
    </a>
    <a href="#app" aria-label="Close reset popup">
      <g>
        <circle class="closeCircle" cx="1178" cy="405" r="24"/>
        <text class="closeX" x="1170" y="413">×</text>
      </g>
    </a>
  </g>
</svg>
