<svg xmlns="http://www.w3.org/2000/svg" width="1200" height="1800" viewBox="0 0 1200 1800" role="img" aria-labelledby="title desc">
<title id="title">Japan at a glance infographic</title>
<desc id="desc">Static SVG infographic about Japan with a stylized map, city markers, GDP bar chart, nationality composition pie chart, and travel highlights. No JavaScript.</desc>
<defs>
  <linearGradient id="bg" x1="0" y1="0" x2="1" y2="1">
    <stop offset="0%" stop-color="#f8fbff"/>
    <stop offset="40%" stop-color="#e7f3f6"/>
    <stop offset="100%" stop-color="#f9efe8"/>
  </linearGradient>
  <radialGradient id="sun" cx="50%" cy="50%" r="50%">
    <stop offset="0%" stop-color="#ffb3b3" stop-opacity="0.85"/>
    <stop offset="100%" stop-color="#ef476f" stop-opacity="0.10"/>
  </radialGradient>
  <linearGradient id="cardgrad" x1="0" y1="0" x2="1" y2="1">
    <stop offset="0%" stop-color="#ffffff" stop-opacity="0.96"/>
    <stop offset="100%" stop-color="#f6fbfc" stop-opacity="0.90"/>
  </linearGradient>
  <linearGradient id="bargrad" x1="0" y1="0" x2="0" y2="1">
    <stop offset="0%" stop-color="#ef476f"/>
    <stop offset="100%" stop-color="#118ab2"/>
  </linearGradient>
  <pattern id="wave" width="80" height="32" patternUnits="userSpaceOnUse">
    <path d="M0,18 C20,2 40,34 80,18" fill="none" stroke="#0d7380" stroke-width="2" opacity="0.10"/>
  </pattern>
  <filter id="softShadow" x="-20%" y="-20%" width="140%" height="140%">
    <feDropShadow dx="0" dy="10" stdDeviation="10" flood-color="#12323a" flood-opacity="0.16"/>
  </filter>
  <style>
    text { font-family: Inter, ui-sans-serif, system-ui, -apple-system, BlinkMacSystemFont, "Segoe UI", Arial, sans-serif; }
    .tiny { letter-spacing: .08em; text-transform: uppercase; }
    .label { paint-order: stroke; stroke: white; stroke-width: 4px; stroke-linejoin: round; }
  </style>
</defs>

<rect width="1200" height="1800" fill="url(#bg)"/>
<rect width="1200" height="1800" fill="url(#wave)"/>
<circle cx="980" cy="150" r="175" fill="url(#sun)"/>
<circle cx="125" cy="1680" r="260" fill="#118ab2" opacity="0.06"/>
<circle cx="1085" cy="1065" r="180" fill="#06d6a0" opacity="0.08"/>
<path d="M905 218 L1015 72 L1138 218 Z" fill="#dfeef2" opacity="0.95"/>
<path d="M1015 72 L970 133 L1000 122 L1026 154 L1050 121 Z" fill="#ffffff" opacity="0.96"/>
<path d="M905 218 C960 202 1035 202 1138 218 L1138 236 L905 236 Z" fill="#15343c" opacity="0.08"/>
<text x="64" y="82" font-size="24" font-weight="800" class="tiny" fill="#ef476f">STATIC SVG INFOGRAPHIC</text>
<text x="64" y="138" font-size="58" font-weight="900" fill="#15343c">Japan at a glance</text>
<text x="66" y="175" font-size="20" fill="#496872">Cities, economy, people, and trip ideas in one compact page</text>
<rect x="64" y="220" width="520" height="560" rx="28" fill="#0b2a33" opacity="0.10"/>
<rect x="56" y="210" width="520" height="560" rx="28" fill="url(#cardgrad)" stroke="#ffffff" stroke-width="1.5"/>
<rect x="632" y="220" width="520" height="560" rx="28" fill="#0b2a33" opacity="0.10"/>
<rect x="624" y="210" width="520" height="560" rx="28" fill="url(#cardgrad)" stroke="#ffffff" stroke-width="1.5"/>
<text x="86" y="260" font-size="24" font-weight="900" fill="#15343c">Map + major cities</text>
<text x="87" y="286" font-size="14" class="tiny" fill="#5f7780">Approximate positions on a stylized Japan map</text>
<rect x="85" y="315" width="430" height="415" rx="22" fill="#e6f5f8" stroke="#cfe5ea"/>
<path d="M96 676 C175 635 232 693 302 655 C370 618 422 668 505 630" fill="none" stroke="#0d7380" stroke-width="3" opacity="0.15"/>
<path d="M112 395 C173 360 222 405 288 378 C365 347 424 385 492 350" fill="none" stroke="#0d7380" stroke-width="3" opacity="0.12"/>
<path d="M360.6,250.7 L395.3,242.2 L434.4,259.3 L475.6,293.4 L449.6,327.5 L408.4,347.4 L371.5,344.6 L349.8,310.5 L351.9,276.3 Z" fill="#d6ead9" stroke="#2d5963" stroke-width="2.2" opacity="1"/>
<path d="M375.8,358.8 L384.5,387.2 L373.6,407.2 L391.0,432.8 L380.1,464.0 L358.4,486.8 L354.1,518.1 L336.7,529.4 L312.9,526.6 L284.6,535.1 L260.8,549.3 L241.2,555.0 L217.4,566.4 L195.7,557.9 L178.3,566.4 L160.9,560.7 L167.5,546.5 L195.7,538.0 L221.7,532.3 L245.6,526.6 L271.6,515.2 L293.3,501.0 L315.0,478.2 L336.7,449.8 L358.4,415.7 L371.5,381.6 Z" fill="#d6ead9" stroke="#2d5963" stroke-width="2.2" opacity="1"/>
<path d="M141.4,572.1 L167.5,583.5 L176.1,609.1 L163.1,634.7 L147.9,654.6 L128.4,646.0 L119.7,620.4 L126.2,594.8 Z" fill="#d6ead9" stroke="#2d5963" stroke-width="2.2" opacity="1"/>
<path d="M184.8,566.4 L213.0,557.9 L243.4,566.4 L232.6,583.5 L202.2,589.2 L184.8,580.6 Z" fill="#d6ead9" stroke="#2d5963" stroke-width="2.2" opacity="1"/>
<circle cx="334.6" cy="549.3" r="3" fill="#d6ead9" stroke="#2d5963" stroke-width="1"/>
<circle cx="343.2" cy="555.0" r="2.5" fill="#d6ead9" stroke="#2d5963" stroke-width="1"/>
<circle cx="380.1" cy="401.5" r="2.4" fill="#d6ead9" stroke="#2d5963" stroke-width="1"/>
<circle cx="150.1" cy="660.2" r="2.5" fill="#d6ead9" stroke="#2d5963" stroke-width="1"/>
<circle cx="115.4" cy="651.7" r="1.8" fill="#d6ead9" stroke="#2d5963" stroke-width="1"/>
<circle cx="130" cy="705" r="3" fill="#d6ead9" stroke="#2d5963" stroke-width="1"/>
<circle cx="152" cy="694" r="4" fill="#d6ead9" stroke="#2d5963" stroke-width="1"/>
<circle cx="174" cy="704" r="3" fill="#d6ead9" stroke="#2d5963" stroke-width="1"/>
<circle cx="197" cy="690" r="4" fill="#d6ead9" stroke="#2d5963" stroke-width="1"/>
<circle cx="218" cy="700" r="3" fill="#d6ead9" stroke="#2d5963" stroke-width="1"/>
<polyline points="260.8,549.6 291.4,535.7 350.8,521.5 350.6,528.3" fill="none" stroke="#ef476f" stroke-width="3" stroke-dasharray="8 7" opacity="0.75"/>
<line x1="350.84991758241745" y1="521.5830625" x2="385.84991758241745" y2="489.5830625" stroke="#263238" stroke-width="1.4" opacity="0.65"/>
<circle cx="350.84991758241745" cy="521.5830625" r="6.8" fill="#ffffff" stroke="#ef476f" stroke-width="3"/>
<rect x="379.84991758241745" y="465.5830625" width="115" height="43" rx="12" fill="#ffffff" opacity="0.93" stroke="#e8eef0"/>
<text x="393.84991758241745" y="482.5830625" font-size="15" font-weight="800" fill="#15343c">Tokyo</text>
<text x="393.84991758241745" y="499.5830625" font-size="11" fill="#58717a">~9.9M / 23 wards</text>
<line x1="350.5829670329673" y1="528.19478125" x2="392.5829670329673" y2="563.19478125" stroke="#263238" stroke-width="1.4" opacity="0.65"/>
<circle cx="350.5829670329673" cy="528.19478125" r="6.8" fill="#ffffff" stroke="#ef476f" stroke-width="3"/>
<rect x="386.5829670329673" y="539.19478125" width="142" height="43" rx="12" fill="#ffffff" opacity="0.93" stroke="#e8eef0"/>
<text x="400.5829670329673" y="556.19478125" font-size="15" font-weight="800" fill="#15343c">Yokohama</text>
<text x="400.5829670329673" y="573.19478125" font-size="11" fill="#58717a">~3.8M</text>
<line x1="260.82464285714275" y1="549.52290625" x2="140.82464285714275" y2="567.52290625" stroke="#263238" stroke-width="1.4" opacity="0.65"/>
<circle cx="260.82464285714275" cy="549.52290625" r="6.8" fill="#ffffff" stroke="#ef476f" stroke-width="3"/>
<rect x="134.82464285714275" y="543.52290625" width="115" height="43" rx="12" fill="#ffffff" opacity="0.93" stroke="#e8eef0"/>
<text x="148.82464285714275" y="560.52290625" font-size="15" font-weight="800" fill="#15343c">Osaka</text>
<text x="148.82464285714275" y="577.52290625" font-size="11" fill="#58717a">~2.8M</text>
<line x1="291.30258241758247" y1="535.65109375" x2="173.30258241758247" y2="500.65109375" stroke="#263238" stroke-width="1.4" opacity="0.65"/>
<circle cx="291.30258241758247" cy="535.65109375" r="6.8" fill="#ffffff" stroke="#ef476f" stroke-width="3"/>
<rect x="167.30258241758247" y="476.65109375" width="124" height="43" rx="12" fill="#ffffff" opacity="0.93" stroke="#e8eef0"/>
<text x="181.30258241758247" y="493.65109375" font-size="15" font-weight="800" fill="#15343c">Nagoya</text>
<text x="181.30258241758247" y="510.65109375" font-size="11" fill="#58717a">~2.3M</text>
<rect x="102" y="330" width="156" height="38" rx="13" fill="#ffffff" opacity="0.88"/>
<circle cx="121" cy="349" r="5" fill="#ffffff" stroke="#ef476f" stroke-width="3"/>
<text x="136" y="354" font-size="13" font-weight="700" fill="#15343c">City marker</text>
<path d="M227 349 L252 349" stroke="#ef476f" stroke-width="3" stroke-dasharray="6 5"/>
<text x="263" y="354" font-size="13" font-weight="700" fill="#15343c">rail arc</text>
<text x="655" y="262" font-size="28" font-weight="900" fill="#15343c">A compact country of contrasts</text>
<text x="656" y="304" class="" font-size="18" font-weight="400" fill="#344b52">
<tspan x="656" dy="0">Japan stretches from snowy Hokkaido to</tspan>
<tspan x="656" dy="24.3">subtropical islands, but much of its population</tspan>
<tspan x="656" dy="24.3">and industry is concentrated along the Pacific</tspan>
<tspan x="656" dy="24.3">side of Honshu. The marked cities form a</tspan>
<tspan x="656" dy="24.3">powerful urban corridor connected by high-speed</tspan>
<tspan x="656" dy="24.3">rail.</tspan>
</text>
<rect x="656" y="430" width="205" height="66" rx="20" fill="#15343c" opacity="0.92"/>
<text x="674" y="455" font-size="12" class="tiny" fill="#9ee1e9">GDP 2024</text>
<text x="674" y="481" font-size="24" font-weight="900" fill="#ffffff">$4.03T</text>
<rect x="882" y="430" width="205" height="66" rx="20" fill="#15343c" opacity="0.92"/>
<text x="900" y="455" font-size="12" class="tiny" fill="#9ee1e9">Capital</text>
<text x="900" y="481" font-size="24" font-weight="900" fill="#ffffff">Tokyo</text>
<rect x="656" y="518" width="205" height="66" rx="20" fill="#15343c" opacity="0.92"/>
<text x="674" y="543" font-size="12" class="tiny" fill="#9ee1e9">Data view</text>
<text x="674" y="569" font-size="24" font-weight="900" fill="#ffffff">2015–2024</text>
<rect x="882" y="518" width="205" height="66" rx="20" fill="#15343c" opacity="0.92"/>
<text x="900" y="543" font-size="12" class="tiny" fill="#9ee1e9">SVG</text>
<text x="900" y="569" font-size="24" font-weight="900" fill="#ffffff">No JS</text>
<g transform="translate(662,620)"><rect x="0" y="22" width="128" height="22" rx="11" fill="#e63946" opacity="0.88"/><rect x="14" y="7" width="98" height="28" rx="14" fill="#ffffff" stroke="#e63946" stroke-width="3"/><circle cx="37" cy="50" r="8" fill="#15343c"/><circle cx="94" cy="50" r="8" fill="#15343c"/><text x="150" y="34" font-size="16" font-weight="800" fill="#15343c">Shinkansen energy</text><text x="150" y="56" font-size="13" fill="#58717a">speed, precision and dense links</text></g>
<rect x="64" y="815" width="1088" height="105" rx="26" fill="#0b2a33" opacity="0.10"/>
<rect x="56" y="805" width="1088" height="105" rx="26" fill="rgb(255,255,255)" fill-opacity="0.76" stroke="#ffffff" stroke-width="1.5"/>
<text x="86" y="846" font-size="22" font-weight="900" fill="#15343c">Snapshot</text>
<text x="86" y="879" class="" font-size="18" font-weight="400" fill="#344b52">
<tspan x="86" dy="0">Japan is a technologically advanced island nation with deep cultural layers: temples, food traditions, pop</tspan>
<tspan x="86" dy="24.3">culture, mountainous landscapes, and some of the world’s most recognizable urban experiences.</tspan>
</text>
<rect x="64" y="960" width="500" height="345" rx="28" fill="#0b2a33" opacity="0.10"/>
<rect x="56" y="950" width="500" height="345" rx="28" fill="url(#cardgrad)" stroke="#ffffff" stroke-width="1.5"/>
<rect x="592" y="960" width="560" height="345" rx="28" fill="#0b2a33" opacity="0.10"/>
<rect x="584" y="950" width="560" height="345" rx="28" fill="url(#cardgrad)" stroke="#ffffff" stroke-width="1.5"/>
<text x="88" y="1003" font-size="30" font-weight="900" fill="#15343c">GDP story</text>
<text x="88" y="1044" class="" font-size="18" font-weight="400" fill="#344b52">
<tspan x="88" dy="0">The bars use nominal GDP in current US</tspan>
<tspan x="88" dy="24.3">dollars, so exchange-rate movement matters.</tspan>
<tspan x="88" dy="24.3">Japan held near the $5T level through</tspan>
<tspan x="88" dy="24.3">2019–2021, then the dollar value fell in</tspan>
<tspan x="88" dy="24.3">2022–2024 while remaining one of the world’s</tspan>
<tspan x="88" dy="24.3">largest economies.</tspan>
</text>
<rect x="88" y="1190" width="184" height="62" rx="18" fill="#ffe8ef"/>
<text x="105" y="1214" font-size="12" class="tiny" fill="#ef476f">Peak in chart</text>
<text x="105" y="1240" font-size="23" font-weight="900" fill="#15343c">2019 · $5.12T</text>
<rect x="292" y="1190" width="184" height="62" rx="18" fill="#e1f4f7"/>
<text x="309" y="1214" font-size="12" class="tiny" fill="#118ab2">Latest value</text>
<text x="309" y="1240" font-size="23" font-weight="900" fill="#15343c">2024 · $4.03T</text>
<text x="625" y="1004" font-size="22" font-weight="900" fill="#15343c">GDP, current US$ trillions</text>
<line x1="625" y1="1239" x2="1095" y2="1239" stroke="#8ca6ad" stroke-width="1.2"/>
<line x1="625" y1="1024" x2="625" y2="1239" stroke="#8ca6ad" stroke-width="1.2"/>
<line x1="619" y1="1239.0" x2="1095" y2="1239.0" stroke="#15343c" stroke-width="0.6" opacity="0.12"/>
<text x="613" y="1243.0" text-anchor="end" font-size="11" fill="#58717a">0</text>
<line x1="619" y1="1199.9" x2="1095" y2="1199.9" stroke="#15343c" stroke-width="0.6" opacity="0.12"/>
<text x="613" y="1203.9" text-anchor="end" font-size="11" fill="#58717a">1</text>
<line x1="619" y1="1160.8" x2="1095" y2="1160.8" stroke="#15343c" stroke-width="0.6" opacity="0.12"/>
<text x="613" y="1164.8" text-anchor="end" font-size="11" fill="#58717a">2</text>
<line x1="619" y1="1121.7" x2="1095" y2="1121.7" stroke="#15343c" stroke-width="0.6" opacity="0.12"/>
<text x="613" y="1125.7" text-anchor="end" font-size="11" fill="#58717a">3</text>
<line x1="619" y1="1082.6" x2="1095" y2="1082.6" stroke="#15343c" stroke-width="0.6" opacity="0.12"/>
<text x="613" y="1086.6" text-anchor="end" font-size="11" fill="#58717a">4</text>
<line x1="619" y1="1043.5" x2="1095" y2="1043.5" stroke="#15343c" stroke-width="0.6" opacity="0.12"/>
<text x="613" y="1047.5" text-anchor="end" font-size="11" fill="#58717a">5</text>
<rect x="625.0" y="1065.2" width="38.0" height="173.8" rx="8" fill="url(#bargrad)" opacity="0.92"/>
<text x="644.0" y="1059.2" text-anchor="middle" font-size="10" font-weight="700" fill="#15343c">4.4</text>
<text x="644.0" y="1259" text-anchor="middle" font-size="11" fill="#58717a" transform="rotate(-38 644.0,1259)">2015</text>
<rect x="673.0" y="1043.4" width="38.0" height="195.6" rx="8" fill="url(#bargrad)" opacity="0.92"/>
<text x="692.0" y="1037.4" text-anchor="middle" font-size="10" font-weight="700" fill="#15343c">5.0</text>
<text x="692.0" y="1259" text-anchor="middle" font-size="11" fill="#58717a" transform="rotate(-38 692.0,1259)">2016</text>
<rect x="721.0" y="1046.2" width="38.0" height="192.8" rx="8" fill="url(#bargrad)" opacity="0.92"/>
<text x="740.0" y="1040.2" text-anchor="middle" font-size="10" font-weight="700" fill="#15343c">4.9</text>
<text x="740.0" y="1259" text-anchor="middle" font-size="11" fill="#58717a" transform="rotate(-38 740.0,1259)">2017</text>
<rect x="769.0" y="1041.9" width="38.0" height="197.1" rx="8" fill="url(#bargrad)" opacity="0.92"/>
<text x="788.0" y="1035.9" text-anchor="middle" font-size="10" font-weight="700" fill="#15343c">5.0</text>
<text x="788.0" y="1259" text-anchor="middle" font-size="11" fill="#58717a" transform="rotate(-38 788.0,1259)">2018</text>
<rect x="817.0" y="1038.9" width="38.0" height="200.1" rx="8" fill="url(#bargrad)" opacity="0.92"/>
<text x="836.0" y="1032.9" text-anchor="middle" font-size="10" font-weight="700" fill="#15343c">5.1</text>
<text x="836.0" y="1259" text-anchor="middle" font-size="11" fill="#58717a" transform="rotate(-38 836.0,1259)">2019</text>
<rect x="865.0" y="1041.4" width="38.0" height="197.6" rx="8" fill="url(#bargrad)" opacity="0.92"/>
<text x="884.0" y="1035.4" text-anchor="middle" font-size="10" font-weight="700" fill="#15343c">5.1</text>
<text x="884.0" y="1259" text-anchor="middle" font-size="11" fill="#58717a" transform="rotate(-38 884.0,1259)">2020</text>
<rect x="913.0" y="1042.0" width="38.0" height="197.0" rx="8" fill="url(#bargrad)" opacity="0.92"/>
<text x="932.0" y="1036.0" text-anchor="middle" font-size="10" font-weight="700" fill="#15343c">5.0</text>
<text x="932.0" y="1259" text-anchor="middle" font-size="11" fill="#58717a" transform="rotate(-38 932.0,1259)">2021</text>
<rect x="961.0" y="1072.4" width="38.0" height="166.6" rx="8" fill="url(#bargrad)" opacity="0.92"/>
<text x="980.0" y="1066.4" text-anchor="middle" font-size="10" font-weight="700" fill="#15343c">4.3</text>
<text x="980.0" y="1259" text-anchor="middle" font-size="11" fill="#58717a" transform="rotate(-38 980.0,1259)">2022</text>
<rect x="1009.0" y="1074.3" width="38.0" height="164.7" rx="8" fill="url(#bargrad)" opacity="0.92"/>
<text x="1028.0" y="1068.3" text-anchor="middle" font-size="10" font-weight="700" fill="#15343c">4.2</text>
<text x="1028.0" y="1259" text-anchor="middle" font-size="11" fill="#58717a" transform="rotate(-38 1028.0,1259)">2023</text>
<rect x="1057.0" y="1081.6" width="38.0" height="157.4" rx="8" fill="url(#bargrad)" opacity="0.92"/>
<text x="1076.0" y="1075.6" text-anchor="middle" font-size="10" font-weight="700" fill="#15343c">4.0</text>
<text x="1076.0" y="1259" text-anchor="middle" font-size="11" fill="#58717a" transform="rotate(-38 1076.0,1259)">2024</text>
<text x="625" y="1276" font-size="12" fill="#58717a">Source series: World Bank via FRED. Values rounded in labels.</text>
<rect x="64" y="1350" width="500" height="365" rx="28" fill="#0b2a33" opacity="0.10"/>
<rect x="56" y="1340" width="500" height="365" rx="28" fill="url(#cardgrad)" stroke="#ffffff" stroke-width="1.5"/>
<rect x="592" y="1350" width="560" height="365" rx="28" fill="#0b2a33" opacity="0.10"/>
<rect x="584" y="1340" width="560" height="365" rx="28" fill="url(#cardgrad)" stroke="#ffffff" stroke-width="1.5"/>
<text x="88" y="1392" font-size="28" font-weight="900" fill="#15343c">Population composition</text>
<text x="89" y="1420" font-size="13" class="tiny" fill="#5f7780">shares by nationality, 2022 estimate</text>
<path d="M210.000,1450.000 A92,92 0 1 1 195.608,1451.133 L201.553,1488.665 A54,54 0 1 0 210.000,1488.000 Z" fill="#ef476f" stroke="#ffffff" stroke-width="2"/>
<path d="M195.608,1451.133 A92,92 0 0 1 199.043,1450.655 L203.569,1488.384 A54,54 0 0 0 201.553,1488.665 Z" fill="#ffd166" stroke="#ffffff" stroke-width="2"/>
<path d="M199.043,1450.655 A92,92 0 0 1 201.342,1450.408 L204.918,1488.240 A54,54 0 0 0 203.569,1488.384 Z" fill="#06d6a0" stroke="#ffffff" stroke-width="2"/>
<path d="M201.342,1450.408 A92,92 0 0 1 203.070,1450.261 L205.932,1488.153 A54,54 0 0 0 204.918,1488.240 Z" fill="#118ab2" stroke="#ffffff" stroke-width="2"/>
<path d="M203.070,1450.261 A92,92 0 0 1 210.000,1450.000 L210.000,1488.000 A54,54 0 0 0 205.932,1488.153 Z" fill="#7353ba" stroke="#ffffff" stroke-width="2"/>
<circle cx="210" cy="1542" r="53" fill="#ffffff"/>
<text x="210" y="1536" text-anchor="middle" font-size="30" font-weight="900" fill="#15343c">97.5%</text>
<text x="210" y="1564" text-anchor="middle" font-size="14" font-weight="800" fill="#58717a">Japanese</text>
<rect x="330" y="1460" width="18" height="18" rx="5" fill="#ef476f"/>
<text x="358" y="1474" font-size="15" font-weight="800" fill="#15343c">Japanese</text>
<text x="468" y="1474" font-size="15" fill="#58717a">97.5%</text>
<rect x="330" y="1502" width="18" height="18" rx="5" fill="#ffd166"/>
<text x="358" y="1516" font-size="15" font-weight="800" fill="#15343c">Chinese</text>
<text x="468" y="1516" font-size="15" fill="#58717a">0.6%</text>
<rect x="330" y="1544" width="18" height="18" rx="5" fill="#06d6a0"/>
<text x="358" y="1558" font-size="15" font-weight="800" fill="#15343c">Vietnamese</text>
<text x="468" y="1558" font-size="15" fill="#58717a">0.4%</text>
<rect x="330" y="1586" width="18" height="18" rx="5" fill="#118ab2"/>
<text x="358" y="1600" font-size="15" font-weight="800" fill="#15343c">South Korean</text>
<text x="468" y="1600" font-size="15" fill="#58717a">0.3%</text>
<rect x="330" y="1628" width="18" height="18" rx="5" fill="#7353ba"/>
<text x="358" y="1642" font-size="15" font-weight="800" fill="#15343c">Other</text>
<text x="468" y="1642" font-size="15" fill="#58717a">1.2%</text>
<text x="88" y="1665" font-size="12" fill="#58717a">Note: category wording follows World Factbook/OpenFactBook; “Vietnam” is shown as Vietnamese here.</text>
<text x="616" y="1392" font-size="30" font-weight="900" fill="#15343c">What to visit</text>
<text x="616" y="1433" class="" font-size="18" font-weight="400" fill="#344b52">
<tspan x="616" dy="0">Start with Tokyo for neighborhoods, food, design</tspan>
<tspan x="616" dy="24.3">and night views. Add Kyoto for temples and</tspan>
<tspan x="616" dy="24.3">gardens, Osaka for street food, Hiroshima and</tspan>
<tspan x="616" dy="24.3">Miyajima for history and scenery, and Mount Fuji</tspan>
<tspan x="616" dy="24.3">or Hakone for iconic landscapes. In winter,</tspan>
<tspan x="616" dy="24.3">Hokkaido adds snow, seafood and open space.</tspan>
</text>
<rect x="616" y="1588" width="210" height="42" rx="17" fill="#f2f8fa" stroke="#dbecef"/>
<circle cx="637" cy="1609" r="10" fill="#ef476f" opacity="0.85"/>
<text x="656" y="1606" font-size="15" font-weight="900" fill="#15343c">Tokyo</text>
<text x="656" y="1622" font-size="12" fill="#58717a">neon + craft</text>
<rect x="851" y="1588" width="210" height="42" rx="17" fill="#f2f8fa" stroke="#dbecef"/>
<circle cx="872" cy="1609" r="10" fill="#ef476f" opacity="0.85"/>
<text x="891" y="1606" font-size="15" font-weight="900" fill="#15343c">Kyoto</text>
<text x="891" y="1622" font-size="12" fill="#58717a">temples + gardens</text>
<rect x="616" y="1646" width="210" height="42" rx="17" fill="#f2f8fa" stroke="#dbecef"/>
<circle cx="637" cy="1667" r="10" fill="#ef476f" opacity="0.85"/>
<text x="656" y="1664" font-size="15" font-weight="900" fill="#15343c">Osaka</text>
<text x="656" y="1680" font-size="12" fill="#58717a">food + comedy</text>
<rect x="851" y="1646" width="210" height="42" rx="17" fill="#f2f8fa" stroke="#dbecef"/>
<circle cx="872" cy="1667" r="10" fill="#ef476f" opacity="0.85"/>
<text x="891" y="1664" font-size="15" font-weight="900" fill="#15343c">Fuji/Hakone</text>
<text x="891" y="1680" font-size="12" fill="#58717a">views + onsen</text>
<rect x="56" y="1730" width="1088" height="42" rx="18" fill="#15343c" opacity="0.92"/>
<text x="76" y="1757" font-size="13" fill="#d4f2f5">Static SVG · no JavaScript · Data: World Bank/FRED GDP 2015–2024; World Factbook nationality shares; major-city order from Japan travel/city listings.</text>
</svg>