<?xml version="1.0" encoding="UTF-8" standalone="no"?>
<svg xmlns="http://www.w3.org/2000/svg" xmlns:xlink="http://www.w3.org/1999/xlink" width="1200" height="1600" viewBox="0 0 1200 1600">
    <defs>
        <!-- Gradients -->
        <linearGradient id="pagodaRoofGradient" x1="0%" y1="0%" x2="100%" y2="100%">
            <stop offset="0%" stop-color="#8B4513"/>
            <stop offset="50%" stop-color="#A0522D"/>
            <stop offset="100%" stop-color="#654321"/>
        </linearGradient>

        <linearGradient id="goldGradient" x1="0%" y1="0%" x2="100%" y2="100%">
            <stop offset="0%" stop-color="#FFD700"/>
            <stop offset="50%" stop-color="#FFA500"/>
            <stop offset="100%" stop-color="#FF8C00"/>
        </linearGradient>

        <linearGradient id="redGradient" x1="0%" y1="0%" x2="100%" y2="100%">
            <stop offset="0%" stop-color="#8B0000"/>
            <stop offset="50%" stop-color="#DC143C"/>
            <stop offset="100%" stop-color="#B22222"/>
        </linearGradient>

        <linearGradient id="greenGradient" x1="0%" y1="0%" x2="100%" y2="100%">
            <stop offset="0%" stop-color="#228B22"/>
            <stop offset="50%" stop-color="#32CD32"/>
            <stop offset="100%" stop-color="#2E8B57"/>
        </linearGradient>

        <linearGradient id="skyGradient" x1="0%" y1="0%" x2="0%" y2="100%">
            <stop offset="0%" stop-color="#87CEEB"/>
            <stop offset="100%" stop-color="#E0F6FF"/>
        </linearGradient>

        <linearGradient id="mistGradient" x1="0%" y1="0%" x2="0%" y2="100%">
            <stop offset="0%" stop-color="white" stop-opacity="0.8"/>
            <stop offset="100%" stop-color="white" stop-opacity="0"/>
        </linearGradient>

        <linearGradient id="waterGradient" x1="0%" y1="0%" x2="0%" y2="100%">
            <stop offset="0%" stop-color="#1E90FF" stop-opacity="0.8"/>
            <stop offset="100%" stop-color="#4169E1" stop-opacity="0.6"/>
        </linearGradient>

        <!-- Patterns -->
        <pattern id="roofTilePattern" patternUnits="userSpaceOnUse" width="20" height="20">
            <path d="M0,0 Q10,5 20,0 L20,10 Q10,15 0,10 Z" fill="#654321"/>
            <path d="M0,10 Q10,15 20,10 L20,20 Q10,25 0,20 Z" fill="#8B4513"/>
        </pattern>

        <pattern id="dragonScalePattern" patternUnits="userSpaceOnUse" width="15" height="15">
            <path d="M0,0 L15,0 L15,15 Q7.5,10 0,15 Z" fill="#4B0082"/>
            <path d="M0,0 Q7.5,5 15,0" stroke="#9370DB" stroke-width="0.5" fill="none"/>
        </pattern>

        <pattern id="woodGrainPattern" patternUnits="userSpaceOnUse" width="30" height="30">
            <path d="M0,0 Q15,5 30,0 L30,10 Q15,15 0,10 Z" fill="#8B4513" opacity="0.7"/>
            <path d="M0,10 Q15,15 30,10 L30,20 Q15,25 0,20 Z" fill="#A0522D" opacity="0.7"/>
            <path d="M0,20 Q15,25 30,20 L30,30 Q15,35 0,30 Z" fill="#654321" opacity="0.7"/>
        </pattern>

        <pattern id="bambooPattern" patternUnits="userSpaceOnUse" width="20" height="40">
            <path d="M10,0 L10,40" stroke="#228B22" stroke-width="2" stroke-linecap="round"/>
            <path d="M10,10 Q5,15 10,20" stroke="#228B22" stroke-width="1" fill="none"/>
            <path d="M10,20 Q15,25 10,30" stroke="#228B22" stroke-width="1" fill="none"/>
        </pattern>

        <!-- Filters -->
        <filter id="shadow" x="-20%" y="-20%" width="140%" height="140%">
            <feGaussianBlur in="SourceAlpha" stdDeviation="3"/>
            <feOffset dx="2" dy="2" result="offsetblur"/>
            <feFlood flood-color="rgba(0,0,0,0.5)"/>
            <feComposite in2="offsetblur" operator="in"/>
            <feMerge>
                <feMergeNode/>
                <feMergeNode in="SourceGraphic"/>
            </feMerge>
        </filter>

        <filter id="softGlow" height="300%" width="300%" x="-75%" y="-75%">
            <feGaussianBlur stdDeviation="5" result="blur"/>
            <feComposite in="SourceGraphic" in2="blur" operator="over"/>
        </filter>

        <filter id="mistFilter">
            <feTurbulence type="fractalNoise" baseFrequency="0.05" numOctaves="2" result="turbulence"/>
            <feDisplacementMap in2="turbulence" in="SourceGraphic" scale="5" xChannelSelector="R" yChannelSelector="G"/>
        </filter>
    </defs>

    <!-- Background -->
    <rect width="100%" height="100%" fill="url(#skyGradient)"/>

    <!-- Distant mountains -->
    <path d="M0,800 Q300,600 600,700 Q900,650 1200,750 L1200,1600 L0,1600 Z" fill="#696969" opacity="0.6"/>
    <path d="M0,900 Q400,700 800,800 Q1000,750 1200,850 L1200,1600 L0,1600 Z" fill="#708090" opacity="0.4"/>

    <!-- Clouds -->
    <g opacity="0.8">
        <path d="M100,200 Q200,150 300,200 Q400,250 500,200 Q600,150 700,200 Q800,250 900,200 Q1000,150 1100,200"
              fill="white" filter="url(#softGlow)"/>
        <path d="M50,400 Q150,350 250,400 Q350,450 450,400 Q550,350 650,400 Q750,450 850,400 Q950,350 1050,400"
              fill="white" filter="url(#softGlow)"/>
        <path d="M200,300 Q300,250 400,300 Q500,350 600,300 Q700,250 800,300 Q900,350 1000,300"
              fill="white" filter="url(#softGlow)"/>
    </g>

    <!-- Garden base -->
    <path d="M0,1200 Q300,1100 600,1200 Q900,1150 1200,1250 L1200,1600 L0,1600 Z" fill="#2E8B57"/>

    <!-- Mist -->
    <rect x="0" y="1000" width="1200" height="600" fill="url(#mistGradient)" filter="url(#mistFilter)"/>

    <!-- Pond -->
    <ellipse cx="900" cy="1400" rx="200" ry="80" fill="url(#waterGradient)" opacity="0.9"/>
    <path d="M700,1400 Q800,1350 900,1400 Q1000,1450 1100,1400" stroke="#1E90FF" stroke-width="2" fill="none" opacity="0.7"/>

    <!-- Garden elements -->
    <g id="gardenElements">
        <!-- Rocks -->
        <path d="M100,1300 Q150,1250 200,1300 Q250,1350 300,1300 Q350,1250 400,1300"
              fill="#696969" filter="url(#shadow)"/>
        <path d="M1100,1350 Q1150,1300 1200,1350 Q1150,1400 1100,1350"
              fill="#708090" filter="url(#shadow)"/>

        <!-- Bamboo -->
        <g fill="url(#bambooPattern)" opacity="0.8">
            <rect x="50" y="1000" width="20" height="200" transform="rotate(-5 60 1100)"/>
            <rect x="80" y="1020" width="20" height="180" transform="rotate(5 90 1110)"/>
            <rect x="110" y="1010" width="20" height="190" transform="rotate(-3 120 1105)"/>
        </g>

        <!-- Pine trees -->
        <g>
            <path d="M200,1100 L220,1000 L240,1100 L220,1050 Z" fill="#228B22" filter="url(#shadow)"/>
            <path d="M210,1050 L230,950 L250,1050 L230,1000 Z" fill="#32CD32" filter="url(#shadow)"/>
            <path d="M220,1000 L240,900 L260,1000 L240,950 Z" fill="#2E8B57" filter="url(#shadow)"/>
            <rect x="235" y="1000" width="10" height="100" fill="url(#woodGrainPattern)"/>

            <path d="M1000,1150 L1020,1050 L1040,1150 L1020,1100 Z" fill="#228B22" filter="url(#shadow)"/>
            <path d="M1010,1100 L1030,1000 L1050,1100 L1030,1050 Z" fill="#32CD32" filter="url(#shadow)"/>
            <path d="M1020,1050 L1040,950 L1060,1050 L1040,1000 Z" fill="#2E8B57" filter="url(#shadow)"/>
            <rect x="1035" y="1050" width="10" height="100" fill="url(#woodGrainPattern)"/>
        </g>

        <!-- Flowers -->
        <g>
            <circle cx="300" cy="1350" r="8" fill="#FF69B4"/>
            <circle cx="310" cy="1340" r="8" fill="#FF69B4"/>
            <circle cx="320" cy="1350" r="8" fill="#FF69B4"/>
            <circle cx="310" cy="1360" r="8" fill="#FF69B4"/>
            <circle cx="310" cy="1350" r="5" fill="#FF1493"/>
            <path d="M310,1350 L310,1400" stroke="#228B22" stroke-width="2"/>

            <circle cx="800" cy="1300" r="6" fill="#FFD700"/>
            <circle cx="810" cy="1295" r="6" fill="#FFD700"/>
            <circle cx="820" cy="1300" r="6" fill="#FFD700"/>
            <circle cx="815" cy="1310" r="6" fill="#FFD700"/>
            <circle cx="805" cy="1310" r="6" fill="#FFD700"/>
            <circle cx="810" cy="1305" r="4" fill="#FFA500"/>
            <path d="M810,1305 L810,1350" stroke="#228B22" stroke-width="2"/>
        </g>

        <!-- Pathways -->
        <path d="M600,1200 Q500,1300 400,1350 Q300,1400 200,1450" stroke="#D2B48C" stroke-width="20" fill="none" stroke-linecap="round"/>
        <path d="M600,1200 Q700,1300 800,1350 Q900,1400 1000,1450" stroke="#D2B48C" stroke-width="20" fill="none" stroke-linecap="round"/>
        <path d="M400,1350 Q500,1400 600,1450 Q700,1400 800,1350" stroke="#D2B48C" stroke-width="15" fill="none" stroke-linecap="round"/>
    </g>

    <!-- Chinese Dragon -->
    <g id="dragon" filter="url(#shadow)">
        <!-- Dragon body coiling around pagoda -->
        <path id="dragonBody" d="M200,800 Q150,700 200,600 Q250,500 350,550 Q450,600 500,500 Q550,400 650,450
                                Q750,500 800,400 Q850,300 900,400 Q950,500 1000,350 Q1050,200 950,250
                                Q850,300 800,200 Q750,100 650,150 Q550,200 500,100 Q450,0 350,50
                                Q250,100 200,200 Q150,300 200,400 Q250,500 300,450 Q350,400 400,450"
              fill="url(#dragonScalePattern)" stroke="#4B0082" stroke-width="3"/>

        <!-- Dragon head -->
        <g transform="translate(400,50) rotate(-30)">
            <!-- Head base -->
            <path d="M0,0 Q-50,-30 -80,0 Q-100,30 -80,60 Q-60,80 0,60 Q40,80 60,60 Q80,30 60,0 Q40,-30 0,0 Z"
                  fill="#4B0082" stroke="#9370DB" stroke-width="2"/>

            <!-- Snout -->
            <path d="M-80,0 Q-120,-20 -150,0 Q-160,20 -150,40 Q-140,60 -120,50 Q-100,40 -80,30 L-80,0 Z"
                  fill="#6A5ACD" stroke="#9370DB" stroke-width="1"/>

            <!-- Nostrils -->
            <ellipse cx="-140" cy="20" rx="5" ry="8" fill="#000"/>
            <ellipse cx="-130" cy="25" rx="3" ry="5" fill="#333"/>

            <!-- Eyes -->
            <ellipse cx="-60" cy="-10" rx="12" ry="8" fill="#FFD700" stroke="#000" stroke-width="1"/>
            <ellipse cx="-60" cy="-10" rx="6" ry="4" fill="#000"/>

            <!-- Eyebrows -->
            <path d="M-80,-20 Q-70,-30 -50,-25 Q-30,-20 -20,-15" stroke="#000" stroke-width="3" fill="none"/>

            <!-- Horns -->
            <path d="M-40,-40 Q-50,-60 -30,-70 Q-10,-80 0,-60 Q10,-40 0,-30 Q-10,-20 -20,-30 L-40,-40 Z"
                  fill="#8B4513" stroke="#654321" stroke-width="1"/>
            <path d="M-20,-50 Q-30,-70 -10,-80 Q10,-90 20,-70 Q30,-50 20,-40 Q10,-30 0,-40 L-20,-50 Z"
                  fill="#8B4513" stroke="#654321" stroke-width="1"/>

            <!-- Whiskers -->
            <path d="M-120,10 Q-160,5 -180,10" stroke="#000" stroke-width="1" fill="none"/>
            <path d="M-120,20 Q-160,25 -180,20" stroke="#000" stroke-width="1" fill="none"/>
            <path d="M-120,30 Q-160,35 -180,30" stroke="#000" stroke-width="1" fill="none"/>

            <!-- Mouth -->
            <path d="M-100,40 Q-90,50 -80,40" stroke="#000" stroke-width="2" fill="none"/>

            <!-- Teeth -->
            <path d="M-110,35 L-105,45" stroke="#FFF" stroke-width="1"/>
            <path d="M-100,35 L-95,45" stroke="#FFF" stroke-width="1"/>
            <path d="M-90,35 L-85,45" stroke="#FFF" stroke-width="1"/>

            <!-- Tongue -->
            <path d="M-100,45 Q-95,50 -90,45" fill="#FF69B4" stroke="#FF1493" stroke-width="0.5"/>

            <!-- Mane -->
            <path d="M-80,-20 Q-100,-40 -80,-60 Q-60,-80 -40,-70 Q-20,-60 0,-50 Q20,-40 40,-30 Q60,-20 60,0"
                  fill="none" stroke="#9370DB" stroke-width="3" stroke-linecap="round"/>
        </g>

        <!-- Dragon claws -->
        <g>
            <!-- Front claw 1 -->
            <g transform="translate(350,500) rotate(45)">
                <path d="M0,0 L30,0 L25,20 L20,40 L15,50 L10,45 L5,30 Z" fill="#6A5ACD" stroke="#4B0082" stroke-width="1"/>
                <path d="M15,50 L10,60 L5,55 L0,50" fill="#8B4513" stroke="#654321" stroke-width="0.5"/>
                <path d="M10,60 L5,70 L0,65" fill="#8B4513" stroke="#654321" stroke-width="0.5"/>
            </g>

            <!-- Front claw 2 -->
            <g transform="translate(380,480) rotate(30)">
                <path d="M0,0 L30,0 L25,20 L20,40 L15,50 L10,45 L5,30 Z" fill="#6A5ACD" stroke="#4B0082" stroke-width="1"/>
                <path d="M15,50 L10,60 L5,55 L0,50" fill="#8B4513" stroke="#654321" stroke-width="0.5"/>
                <path d="M10,60 L5,70 L0,65" fill="#8B4513" stroke="#654321" stroke-width="0.5"/>
            </g>

            <!-- Back claw 1 -->
            <g transform="translate(850,300) rotate(-45)">
                <path d="M0,0 L30,0 L25,20 L20,40 L15,50 L10,45 L5,30 Z" fill="#6A5ACD" stroke="#4B0082" stroke-width="1"/>
                <path d="M15,50 L10,60 L5,55 L0,50" fill="#8B4513" stroke="#654321" stroke-width="0.5"/>
            </g>

            <!-- Back claw 2 -->
            <g transform="translate(880,280) rotate(-30)">
                <path d="M0,0 L30,0 L25,20 L20,40 L15,50 L10,45 L5,30 Z" fill="#6A5ACD" stroke="#4B0082" stroke-width="1"/>
                <path d="M15,50 L10,60 L5,55 L0,50" fill="#8B4513" stroke="#654321" stroke-width="0.5"/>
            </g>
        </g>

        <!-- Dragon tail -->
        <path d="M1000,350 Q1050,400 1100,350 Q1150,300 1200,350 Q1150,400 1100,450 Q1050,500 1000,450"
              fill="url(#dragonScalePattern)" stroke="#4B0082" stroke-width="3"/>
    </g>

    <!-- Chinese Pagoda -->
    <g id="pagoda" filter="url(#shadow)">
        <!-- Base platform -->
        <rect x="450" y="1100" width="300" height="50" fill="#8B4513" stroke="#654321" stroke-width="2"/>
        <rect x="470" y="1080" width="260" height="20" fill="#A0522D" stroke="#654321" stroke-width="1"/>

        <!-- First floor -->
        <g>
            <rect x="500" y="1000" width="200" height="80" fill="url(#woodGrainPattern)" stroke="#654321" stroke-width="2"/>

            <!-- Windows -->
            <rect x="520" y="1020" width="30" height="40" fill="#8B4513" stroke="#654321" stroke-width="1"/>
            <rect x="525" y="1025" width="20" height="30" fill="#FFD700" opacity="0.7"/>
            <rect x="650" y="1020" width="30" height="40" fill="#8B4513" stroke="#654321" stroke-width="1"/>
            <rect x="655" y="1025" width="20" height="30" fill="#FFD700" opacity="0.7"/>

            <!-- Doors -->
            <rect x="580" y="1030" width="40" height="50" fill="#8B4513" stroke="#654321" stroke-width="1"/>
            <rect x="585" y="1035" width="30" height="40" fill="#654321"/>

            <!-- Roof -->
            <path d="M480,1000 Q500,950 520,1000 L700,1000 Q720,950 740,1000 L740,1010 Q720,960 700,1010 L520,1010 Q500,960 480,1010 Z"
                  fill="url(#pagodaRoofGradient)" stroke="#654321" stroke-width="2"/>
            <path d="M480,1010 Q500,960 520,1010 M700,1010 Q720,960 740,1010" stroke="#FFD700" stroke-width="2" fill="none"/>

            <!-- Roof ornaments -->
            <circle cx="500" cy="970" r="5" fill="#FFD700"/>
            <circle cx="720" cy="970" r="5" fill="#FFD700"/>
            <path d="M500,965 L500,950" stroke="#FFD700" stroke-width="2"/>
            <path d="M720,965 L720,950" stroke="#FFD700" stroke-width="2"/>

            <!-- Eaves -->
            <path d="M480,1000 Q500,990 520,1000 M700,1000 Q720,990 740,1000" stroke="#654321" stroke-width="3" fill="none"/>
        </g>

        <!-- Second floor -->
        <g transform="translate(0,-80)">
            <rect x="520" y="1000" width="160" height="60" fill="url(#woodGrainPattern)" stroke="#654321" stroke-width="2"/>

            <!-- Windows -->
            <rect x="530" y="1010" width="25" height="30" fill="#8B4513" stroke="#654321" stroke-width="1"/>
            <rect x="535" y="1015" width="15" height="20" fill="#FFD700" opacity="0.7"/>
            <rect x="645" y="1010" width="25" height="30" fill="#8B4513" stroke="#654321" stroke-width="1"/>
            <rect x="650" y="1015" width="15" height="20" fill="#FFD700" opacity="0.7"/>

            <!-- Roof -->
            <path d="M500,1000 Q520,950 540,1000 L680,1000 Q700,950 720,1000 L720,1010 Q700,960 680,1010 L540,1010 Q520,960 500,1010 Z"
                  fill="url(#pagodaRoofGradient)" stroke="#654321" stroke-width="2"/>
            <path d="M500,1010 Q520,960 540,1010 M680,1010 Q700,960 720,1010" stroke="#FFD700" stroke-width="2" fill="none"/>

            <!-- Roof ornaments -->
            <circle cx="520" cy="970" r="4" fill="#FFD700"/>
            <circle cx="700" cy="970" r="4" fill="#FFD700"/>
            <path d="M520,966 L520,955" stroke="#FFD700" stroke-width="1.5"/>
            <path d="M700,966 L700,955" stroke="#FFD700" stroke-width="1.5"/>

            <!-- Eaves -->
            <path d="M500,1000 Q520,990 540,1000 M680,1000 Q700,990 720,1000" stroke="#654321" stroke-width="2" fill="none"/>
        </g>

        <!-- Third floor -->
        <g transform="translate(0,-140)">
            <rect x="540" y="1000" width="120" height="40" fill="url(#woodGrainPattern)" stroke="#654321" stroke-width="2"/>

            <!-- Windows -->
            <rect x="550" y="1010" width="20" height="20" fill="#8B4513" stroke="#654321" stroke-width="1"/>
            <rect x="555" y="1015" width="10" height="10" fill="#FFD700" opacity="0.7"/>
            <rect x="630" y="1010" width="20" height="20" fill="#8B4513" stroke="#654321" stroke-width="1"/>
            <rect x="635" y="1015" width="10" height="10" fill="#FFD700" opacity="0.7"/>

            <!-- Roof -->
            <path d="M520,1000 Q540,950 560,1000 L660,1000 Q680,950 700,1000 L700,1010 Q680,960 660,1010 L560,1010 Q540,960 520,1010 Z"
                  fill="url(#pagodaRoofGradient)" stroke="#654321" stroke-width="2"/>
            <path d="M520,1010 Q540,960 560,1010 M660,1010 Q680,960 700,1010" stroke="#FFD700" stroke-width="2" fill="none"/>

            <!-- Roof ornaments -->
            <circle cx="540" cy="970" r="3" fill="#FFD700"/>
            <circle cx="680" cy="970" r="3" fill="#FFD700"/>
            <path d="M540,967 L540,960" stroke="#FFD700" stroke-width="1"/>
            <path d="M680,967 L680,960" stroke="#FFD700" stroke-width="1"/>

            <!-- Eaves -->
            <path d="M520,1000 Q540,990 560,1000 M660,1000 Q680,990 700,1000" stroke="#654321" stroke-width="2" fill="none"/>
        </g>

        <!-- Fourth floor -->
        <g transform="translate(0,-180)">
            <rect x="560" y="1000" width="80" height="30" fill="url(#woodGrainPattern)" stroke="#654321" stroke-width="2"/>

            <!-- Windows -->
            <rect x="570" y="1010" width="15" height="15" fill="#8B4513" stroke="#654321" stroke-width="1"/>
            <rect x="575" y="1015" width="5" height="5" fill="#FFD700" opacity="0.7"/>
            <rect x="615" y="1010" width="15" height="15" fill="#8B4513" stroke="#654321" stroke-width="1"/>
            <rect x="620" y="1015" width="5" height="5" fill="#FFD700" opacity="0.7"/>

            <!-- Roof -->
            <path d="M540,1000 Q560,950 580,1000 L640,1000 Q660,950 680,1000 L680,1010 Q660,960 640,1010 L580,1010 Q560,960 540,1010 Z"
                  fill="url(#pagodaRoofGradient)" stroke="#654321" stroke-width="2"/>
            <path d="M540,1010 Q560,960 580,1010 M640,1010 Q660,960 680,1010" stroke="#FFD700" stroke-width="2" fill="none"/>

            <!-- Roof ornaments -->
            <circle cx="560" cy="970" r="2.5" fill="#FFD700"/>
            <circle cx="660" cy="970" r="2.5" fill="#FFD700"/>
            <path d="M560,967.5 L560,962" stroke="#FFD700" stroke-width="0.8"/>
            <path d="M660,967.5 L660,962" stroke="#FFD700" stroke-width="0.8"/>

            <!-- Eaves -->
            <path d="M540,1000 Q560,990 580,1000 M640,1000 Q660,990 680,1000" stroke="#654321" stroke-width="1.5" fill="none"/>
        </g>

        <!-- Fifth floor -->
        <g transform="translate(0,-210)">
            <rect x="580" y="1000" width="40" height="20" fill="url(#woodGrainPattern)" stroke="#654321" stroke-width="1"/>

            <!-- Roof -->
            <path d="M560,1000 Q580,950 600,1000 L620,1000 Q640,950 660,1000 L660,1010 Q640,960 620,1010 L600,1010 Q580,960 560,1010 Z"
                  fill="url(#pagodaRoofGradient)" stroke="#654321" stroke-width="1.5"/>
            <path d="M560,1010 Q580,960 600,1010 M620,1010 Q640,960 660,1010" stroke="#FFD700" stroke-width="1.5" fill="none"/>

            <!-- Roof ornaments -->
            <circle cx="580" cy="970" r="2" fill="#FFD700"/>
            <circle cx="640" cy="970" r="2" fill="#FFD700"/>
            <path d="M580,968 L580,964" stroke="#FFD700" stroke-width="0.5"/>
            <path d="M640,968 L640,964" stroke="#FFD700" stroke-width="0.5"/>

            <!-- Eaves -->
            <path d="M560,1000 Q580,990 600,1000 M620,1000 Q640,990 660,1000" stroke="#654321" stroke-width="1" fill="none"/>
        </g>

        <!-- Sixth floor -->
        <g transform="translate(0,-230)">
            <rect x="590" y="1000" width="20" height="15" fill="url(#woodGrainPattern)" stroke="#654321" stroke-width="1"/>

            <!-- Roof -->
            <path d="M580,1000 Q600,950 620,1000 L620,1005 Q600,955 580,1005 Z"
                  fill="url(#pagodaRoofGradient)" stroke="#654321" stroke-width="1"/>
            <path d="M580,1005 Q600,955 620,1005" stroke="#FFD700" stroke-width="1" fill="none"/>

            <!-- Roof ornament -->
            <circle cx="600" cy="970" r="1.5" fill="#FFD700"/>
            <path d="M600,968.5 L600,965" stroke="#FFD700" stroke-width="0.3"/>

            <!-- Eaves -->
            <path d="M580,1000 Q600,990 620,1000" stroke="#654321" stroke-width="0.8" fill="none"/>
        </g>

        <!-- Seventh floor (spire) -->
        <g transform="translate(0,-245)">
            <!-- Base -->
            <circle cx="600" cy="1000" r="8" fill="#8B4513" stroke="#654321" stroke-width="1"/>

            <!-- Spire -->
            <path d="M600,992 L600,900" stroke="#FFD700" stroke-width="3" stroke-linecap="round"/>

            <!-- Rings -->
            <circle cx="600" cy="980" r="5" fill="none" stroke="#FFD700" stroke-width="1.5"/>
            <circle cx="600" cy="960" r="4" fill="none" stroke="#FFD700" stroke-width="1.5"/>
            <circle cx="600" cy="940" r="3" fill="none" stroke="#FFD700" stroke-width="1.5"/>

            <!-- Top ornament -->
            <path d="M600,900 L595,890 L605,890 Z" fill="#FFD700"/>
            <circle cx="600" cy="885" r="2" fill="#FFD700"/>
        </g>

        <!-- Decorative elements -->
        <g>
            <!-- Lanterns -->
            <g transform="translate(500,1050)">
                <ellipse cx="0" cy="0" rx="15" ry="20" fill="#DC143C" stroke="#8B0000" stroke-width="1"/>
                <path d="M-15,0 Q0,-20 15,0" fill="#FFD700" opacity="0.7"/>
                <path d="M0,20 L0,30" stroke="#8B4513" stroke-width="2"/>
                <rect x="-5" y="30" width="10" height="5" fill="#8B4513"/>
            </g>

            <g transform="translate(700,1050)">
                <ellipse cx="0" cy="0" rx="15" ry="20" fill="#DC143C" stroke="#8B0000" stroke-width="1"/>
                <path d="M-15,0 Q0,-20 15,0" fill="#FFD700" opacity="0.7"/>
                <path d="M0,20 L0,30" stroke="#8B4513" stroke-width="2"/>
                <rect x="-5" y="30" width="10" height="5" fill="#8B4513"/>
            </g>

            <!-- Carved ornaments -->
            <path d="M550,1080 Q570,1070 590,1080 Q610,1070 630,1080" fill="none" stroke="#FFD700" stroke-width="1.5"/>
            <path d="M550,1085 Q570,1075 590,1085 Q610,1075 630,1085" fill="none" stroke="#FFD700" stroke-width="1.5"/>

            <!-- Balcony railings -->
            <path d="M500,1080 L500,1090 L700,1090 L700,1080" fill="none" stroke="#654321" stroke-width="2"/>
            <path d="M520,1080 L520,1090 M540,1080 L540,1090 M560,1080 L560,1090 M580,1080 L580,1090 M600,1080 L600,1090 M620,1080 L620,1090 M640,1080 L640,1090 M660,1080 L660,1090 M680,1080 L680,1090"
                  stroke="#654321" stroke-width="1"/>
        </g>

        <!-- Roof tiles pattern -->
        <g opacity="0.7">
            <rect x="480" y="1000" width="260" height="10" fill="url(#roofTilePattern)"/>
            <rect x="500" y="920" width="220" height="10" fill="url(#roofTilePattern)"/>
            <rect x="520" y="860" width="180" height="10" fill="url(#roofTilePattern)"/>
            <rect x="540" y="820" width="140" height="10" fill="url(#roofTilePattern)"/>
            <rect x="560" y="790" width="100" height="10" fill="url(#roofTilePattern)"/>
            <rect x="580" y="770" width="60" height="10" fill="url(#roofTilePattern)"/>
        </g>
    </g>

    <!-- Additional decorative elements -->
    <g>
        <!-- Clouds near pagoda -->
        <path d="M300,500 Q400,450 500,500 Q600,550 700,500 Q800,450 900,500" fill="white" opacity="0.6" filter="url(#softGlow)"/>

        <!-- Mist around base -->
        <rect x="400" y="1150" width="400" height="50" fill="url(#mistGradient)" opacity="0.7"/>

        <!-- Floating lanterns -->
        <g>
            <g transform="translate(450,600)">
                <ellipse cx="0" cy="0" rx="10" ry="15" fill="#FF69B4" stroke="#FF1493" stroke-width="1"/>
                <path d="M-10,0 Q0,-15 10,0" fill="#FFD700" opacity="0.7"/>
                <path d="M0,15 L0,25" stroke="#8B4513" stroke-width="1"/>
                <rect x="-3" y="25" width="6" height="3" fill="#8B4513"/>
            </g>

            <g transform="translate(750,700)">
                <ellipse cx="0" cy="0" rx="10" ry="15" fill="#FF69B4" stroke="#FF1493" stroke-width="1"/>
                <path d="M-10,0 Q0,-15 10,0" fill="#FFD700" opacity="0.7"/>
                <path d="M0,15 L0,25" stroke="#8B4513" stroke-width="1"/>
                <rect x="-3" y="25" width="6" height="3" fill="#8B4513"/>
            </g>
        </g>
    </g>
</svg>