<?xml version="1.0" encoding="UTF-8"?>
<svg xmlns="http://www.w3.org/2000/svg" width="2400" height="1800" viewBox="0 0 2400 1800">
  <title>Multi-View Spacecraft Engineering Blueprint</title>
  <desc>Professional aerospace schematic with top, side, front, rear, and cutaway views of a reusable orbital spacecraft.</desc>

  <defs>
    <style>
      .bg{fill:#071426}
      .grid{stroke:#17364f;stroke-width:1}
      .gridMajor{stroke:#234d6b;stroke-width:1.4}
      .outline{fill:none;stroke:#d7f5ff;stroke-width:3}
      .heavy{fill:none;stroke:#ffffff;stroke-width:5}
      .thin{fill:none;stroke:#8edbf4;stroke-width:1.5}
      .med{fill:none;stroke:#7fe5ff;stroke-width:2.2}
      .dash{fill:none;stroke:#75b9d1;stroke-width:1.5;stroke-dasharray:10 8}
      .hidden{fill:none;stroke:#4c8096;stroke-width:1.2;stroke-dasharray:5 7}
      .center{fill:none;stroke:#61b9d8;stroke-width:1.2;stroke-dasharray:22 6 4 6}
      .dim{fill:none;stroke:#f6cf65;stroke-width:1.6;marker-start:url(#arrowDim);marker-end:url(#arrowDim)}
      .ext{fill:none;stroke:#d9b84e;stroke-width:1}
      .leader{fill:none;stroke:#a9ecff;stroke-width:1.4;marker-end:url(#arrowCall)}
      .section{fill:none;stroke:#ff9e6d;stroke-width:2.2;stroke-dasharray:12 6}
      .hatch{stroke:#4ca6c8;stroke-width:1}
      .panel{fill:#0c2941;stroke:#7fe5ff;stroke-width:1.8}
      .module{fill:#0a2237;stroke:#d7f5ff;stroke-width:2}
      .tank{fill:#102d47;stroke:#7fe5ff;stroke-width:2}
      .accent{fill:#13354f;stroke:#d7f5ff;stroke-width:2}
      .engine{fill:#0f2a41;stroke:#ffb36b;stroke-width:2.2}
      .solar{fill:#0d3354;stroke:#63c7ea;stroke-width:1.5}
      .radiator{fill:#16364b;stroke:#b8f3ff;stroke-width:1.5}
      .landing{fill:none;stroke:#d7f5ff;stroke-width:3}
      .txt{fill:#d7f5ff;font-family:Arial,Helvetica,sans-serif;font-size:21px}
      .small{fill:#a9d9e8;font-family:Arial,Helvetica,sans-serif;font-size:16px;letter-spacing:.5px}
      .tiny{fill:#7db4c9;font-family:Arial,Helvetica,sans-serif;font-size:13px;letter-spacing:.4px}
      .label{fill:#d7f5ff;font-family:Arial,Helvetica,sans-serif;font-size:18px;font-weight:600}
      .dimtxt{fill:#f6cf65;font-family:Arial,Helvetica,sans-serif;font-size:16px}
      .viewtitle{fill:#ffffff;font-family:Arial,Helvetica,sans-serif;font-size:24px;font-weight:700;letter-spacing:2px}
      .sheettitle{fill:#ffffff;font-family:Arial,Helvetica,sans-serif;font-size:36px;font-weight:700;letter-spacing:2px}
      .subtle{fill:#71a9bf;font-family:Arial,Helvetica,sans-serif;font-size:14px}
      .callnum{fill:#071426;stroke:#ffffff;stroke-width:2}
      .calltxt{fill:#ffffff;font-family:Arial,Helvetica,sans-serif;font-size:14px;font-weight:700;text-anchor:middle;dominant-baseline:middle}
    </style>

    <pattern id="gridSmall" width="25" height="25" patternUnits="userSpaceOnUse">
      <path d="M25 0H0V25" class="grid"/>
    </pattern>
    <pattern id="gridLarge" width="125" height="125" patternUnits="userSpaceOnUse">
      <rect width="125" height="125" fill="url(#gridSmall)"/>
      <path d="M125 0H0V125" class="gridMajor"/>
    </pattern>
    <pattern id="sectionHatch" width="10" height="10" patternUnits="userSpaceOnUse" patternTransform="rotate(35)">
      <line x1="0" y1="0" x2="0" y2="10" class="hatch"/>
    </pattern>
    <pattern id="solarCells" width="18" height="18" patternUnits="userSpaceOnUse">
      <rect width="18" height="18" fill="#0b3151"/>
      <path d="M0 0H18V18" stroke="#2c7091" stroke-width=".8" fill="none"/>
    </pattern>
    <marker id="arrowDim" markerWidth="10" markerHeight="10" refX="5" refY="5" orient="auto-start-reverse">
      <path d="M10 1L0 5L10 9Z" fill="#f6cf65"/>
    </marker>
    <marker id="arrowCall" markerWidth="10" markerHeight="10" refX="8" refY="5" orient="auto">
      <path d="M0 1L9 5L0 9Z" fill="#a9ecff"/>
    </marker>

    <!-- Common symbols -->
    <g id="engineBell">
      <path d="M0 0 L18 12 L24 40 L-24 40 L-18 12 Z" class="engine"/>
      <line x1="-15" y1="18" x2="15" y2="18" class="thin"/>
      <path d="M-20 38 Q0 48 20 38" class="thin"/>
    </g>

    <g id="landingLeg">
      <line x1="0" y1="0" x2="-28" y2="50" class="landing"/>
      <line x1="-28" y1="50" x2="-46" y2="60" class="landing"/>
      <line x1="-52" y1="60" x2="-38" y2="60" class="landing"/>
      <circle cx="-28" cy="50" r="4" fill="#d7f5ff"/>
    </g>

    <g id="antennaDish">
      <path d="M-22 0 Q0 22 22 0" class="outline"/>
      <line x1="0" y1="10" x2="0" y2="30" class="outline"/>
      <line x1="-10" y1="30" x2="10" y2="30" class="thin"/>
      <circle cx="0" cy="3" r="3" fill="#d7f5ff"/>
    </g>

    <g id="dockingRing">
      <circle cx="0" cy="0" r="36" class="outline"/>
      <circle cx="0" cy="0" r="25" class="thin"/>
      <circle cx="0" cy="-31" r="3" fill="#d7f5ff"/>
      <circle cx="27" cy="16" r="3" fill="#d7f5ff"/>
      <circle cx="-27" cy="16" r="3" fill="#d7f5ff"/>
    </g>
  </defs>

  <rect width="2400" height="1800" class="bg"/>
  <rect x="40" y="40" width="2320" height="1720" fill="url(#gridLarge)" opacity=".55"/>
  <rect x="40" y="40" width="2320" height="1720" fill="none" stroke="#d7f5ff" stroke-width="2.5"/>

  <!-- SHEET HEADER -->
  <text x="80" y="95" class="sheettitle">ORBITAL TRANSFER VEHICLE — OTV-28</text>
  <text x="82" y="126" class="txt">GENERAL ARRANGEMENT / SYSTEMS CUTAWAY / ORTHOGRAPHIC REFERENCE</text>
  <text x="2050" y="90" class="label">DWG NO. OTV-28-GA-001</text>
  <text x="2050" y="118" class="small">SHEET 1 OF 1 • REV C</text>
  <line x1="80" y1="145" x2="2320" y2="145" class="med"/>

  <!-- TOP VIEW -->
  <g transform="translate(120 210)">
    <text x="0" y="0" class="viewtitle">TOP / PLAN VIEW</text>
    <text x="0" y="28" class="small">SCALE 1:100 • DATUM CL ON VEHICLE LONGITUDINAL AXIS</text>

    <!-- centerline -->
    <line x1="40" y1="240" x2="970" y2="240" class="center"/>

    <!-- hull planform -->
    <path d="M80 240
             C105 190 145 165 205 155
             L690 155
             C760 155 815 178 855 205
             L910 225
             Q940 240 910 255
             L855 275
             C815 302 760 325 690 325
             L205 325
             C145 315 105 290 80 240Z" class="heavy"/>

    <!-- crew/cockpit -->
    <path d="M80 240 C105 190 145 165 205 155 L220 170 Q180 240 220 310 L205 325 C145 315 105 290 80 240Z" class="accent"/>
    <path d="M122 211 Q153 178 198 174 L207 190 Q176 227 207 290 L198 306 Q153 302 122 269Z" class="panel"/>
    <line x1="162" y1="183" x2="162" y2="298" class="thin"/>
    <text x="108" y="352" class="small">CREW / COCKPIT</text>

    <!-- dorsal docking port -->
    <g transform="translate(260 240) scale(.75)">
      <use href="#dockingRing"/>
    </g>
    <rect x="238" y="203" width="44" height="74" rx="10" class="hidden"/>

    <!-- cargo bay -->
    <rect x="325" y="175" width="235" height="130" rx="18" class="module"/>
    <line x1="442" y1="175" x2="442" y2="305" class="thin"/>
    <path d="M340 190H545 M340 290H545" class="thin"/>
    <text x="370" y="235" class="label">CARGO BAY</text>
    <text x="370" y="260" class="tiny">PRESSURIZED / 32 m³</text>

    <!-- solar array booms and panels -->
    <line x1="470" y1="155" x2="470" y2="78" class="outline"/>
    <line x1="470" y1="325" x2="470" y2="402" class="outline"/>
    <rect x="320" y="52" width="300" height="50" fill="url(#solarCells)" stroke="#63c7ea" stroke-width="2"/>
    <rect x="320" y="378" width="300" height="50" fill="url(#solarCells)" stroke="#63c7ea" stroke-width="2"/>
    <line x1="395" y1="52" x2="395" y2="102" class="thin"/>
    <line x1="470" y1="52" x2="470" y2="102" class="thin"/>
    <line x1="545" y1="52" x2="545" y2="102" class="thin"/>
    <line x1="395" y1="378" x2="395" y2="428" class="thin"/>
    <line x1="470" y1="378" x2="470" y2="428" class="thin"/>
    <line x1="545" y1="378" x2="545" y2="428" class="thin"/>

    <!-- radiators -->
    <rect x="600" y="174" width="135" height="40" class="radiator"/>
    <rect x="600" y="266" width="135" height="40" class="radiator"/>
    <path d="M610 180V208 M625 180V208 M640 180V208 M655 180V208 M670 180V208 M685 180V208 M700 180V208 M715 180V208" class="thin"/>
    <path d="M610 272V300 M625 272V300 M640 272V300 M655 272V300 M670 272V300 M685 272V300 M700 272V300 M715 272V300" class="thin"/>

    <!-- aft propulsion module -->
    <path d="M735 165 L835 190 L875 215 L875 265 L835 290 L735 315Z" class="module"/>
    <circle cx="775" cy="205" r="17" class="thin"/>
    <circle cx="775" cy="275" r="17" class="thin"/>
    <circle cx="825" cy="225" r="14" class="thin"/>
    <circle cx="825" cy="255" r="14" class="thin"/>
    <text x="742" y="347" class="small">PROPULSION MODULE</text>

    <!-- engines plan projection -->
    <path d="M875 218L942 205L950 224L875 236Z" class="engine"/>
    <path d="M875 244L950 256L942 275L875 262Z" class="engine"/>

    <!-- RCS -->
    <circle cx="235" cy="177" r="4" fill="#ffb36b"/>
    <circle cx="235" cy="303" r="4" fill="#ffb36b"/>
    <circle cx="706" cy="164" r="4" fill="#ffb36b"/>
    <circle cx="706" cy="316" r="4" fill="#ffb36b"/>

    <!-- top view dims -->
    <line x1="80" y1="455" x2="950" y2="455" class="dim"/>
    <line x1="80" y1="430" x2="80" y2="470" class="ext"/>
    <line x1="950" y1="430" x2="950" y2="470" class="ext"/>
    <text x="470" y="448" class="dimtxt">28 000 mm OVERALL LENGTH</text>
    <line x1="1000" y1="155" x2="1000" y2="325" class="dim"/>
    <line x1="975" y1="155" x2="1015" y2="155" class="ext"/>
    <line x1="975" y1="325" x2="1015" y2="325" class="ext"/>
    <text x="1014" y="245" class="dimtxt" transform="rotate(90 1014 245)">6 000 mm HULL DIA.</text>

    <!-- callouts -->
    <path d="M170 115 L170 165" class="leader"/>
    <text x="95" y="106" class="label">FLIGHT DECK</text>
    <path d="M268 110 L260 205" class="leader"/>
    <text x="230" y="100" class="label">DOCKING PORT</text>
    <path d="M400 35 L400 53" class="leader"/>
    <text x="322" y="25" class="label">SOLAR ARRAY A</text>
    <path d="M725 125 L690 175" class="leader"/>
    <text x="705" y="116" class="label">RADIATORS</text>
  </g>

  <!-- SIDE VIEW -->
  <g transform="translate(120 760)">
    <text x="0" y="0" class="viewtitle">PORT SIDE ELEVATION</text>
    <text x="0" y="28" class="small">GEAR SHOWN DEPLOYED • SOLAR ARRAYS SHOWN STOWED IN SIDE PROJECTION</text>

    <line x1="40" y1="205" x2="975" y2="205" class="center"/>

    <!-- main hull side -->
    <path d="M80 205
             C105 145 150 125 210 118
             L690 118
             C755 118 815 140 862 165
             L920 190
             Q945 205 920 220
             L862 245
             C815 270 755 292 690 292
             L210 292
             C150 285 105 265 80 205Z" class="heavy"/>

    <!-- cockpit glazing -->
    <path d="M118 182 Q145 140 206 134 L235 145 L216 190Z" class="panel"/>
    <line x1="163" y1="148" x2="177" y2="190" class="thin"/>
    <line x1="200" y1="140" x2="208" y2="190" class="thin"/>

    <!-- crew decks -->
    <line x1="220" y1="205" x2="335" y2="205" class="thin"/>
    <rect x="245" y="152" width="72" height="38" rx="5" class="module"/>
    <rect x="245" y="220" width="72" height="38" rx="5" class="module"/>
    <text x="238" y="318" class="small">CREW MODULE</text>

    <!-- airlock -->
    <rect x="335" y="145" width="65" height="120" rx="14" class="module"/>
    <circle cx="368" cy="205" r="24" class="outline"/>
    <circle cx="368" cy="205" r="15" class="thin"/>
    <text x="334" y="290" class="tiny">AIRLOCK</text>

    <!-- cargo bay doors -->
    <rect x="420" y="138" width="180" height="134" rx="14" class="module"/>
    <line x1="510" y1="138" x2="510" y2="272" class="thin"/>
    <path d="M435 153H585 M435 257H585" class="thin"/>
    <text x="458" y="202" class="label">CARGO</text>
    <text x="452" y="224" class="tiny">BAY 32 m³</text>

    <!-- solar array stowed cassette -->
    <rect x="450" y="102" width="145" height="16" class="solar"/>
    <path d="M460 102V118 M480 102V118 M500 102V118 M520 102V118 M540 102V118 M560 102V118 M580 102V118" class="thin"/>

    <!-- aft machinery -->
    <path d="M620 132 L760 132 L855 166 L875 190 L875 220 L855 244 L760 278 L620 278Z" class="module"/>
    <circle cx="690" cy="170" r="30" class="tank"/>
    <circle cx="690" cy="240" r="30" class="tank"/>
    <rect x="755" y="160" width="65" height="90" class="accent"/>
    <text x="756" y="210" class="tiny">AVIONICS</text>

    <!-- engine bells -->
    <g transform="translate(894 178) rotate(-90) scale(.78)"><use href="#engineBell"/></g>
    <g transform="translate(894 232) rotate(-90) scale(.78)"><use href="#engineBell"/></g>

    <!-- radiator -->
    <rect x="622" y="105" width="118" height="18" class="radiator"/>
    <path d="M630 107V121 M644 107V121 M658 107V121 M672 107V121 M686 107V121 M700 107V121 M714 107V121 M728 107V121" class="thin"/>

    <!-- antenna -->
    <g transform="translate(582 95) scale(.75)"><use href="#antennaDish"/></g>
    <path d="M582 102 V118" class="outline"/>

    <!-- landing gear -->
    <g transform="translate(255 285)"><use href="#landingLeg"/></g>
    <g transform="translate(755 285) scale(-1 1)"><use href="#landingLeg"/></g>
    <line x1="205" y1="345" x2="835" y2="345" class="dash"/>
    <text x="430" y="365" class="tiny">GROUND REFERENCE LINE</text>

    <!-- dimensioning -->
    <line x1="80" y1="405" x2="950" y2="405" class="dim"/>
    <line x1="80" y1="380" x2="80" y2="420" class="ext"/>
    <line x1="950" y1="380" x2="950" y2="420" class="ext"/>
    <text x="480" y="398" class="dimtxt">28.00 m</text>
    <line x1="35" y1="118" x2="35" y2="345" class="dim"/>
    <line x1="25" y1="118" x2="80" y2="118" class="ext"/>
    <line x1="25" y1="345" x2="205" y2="345" class="ext"/>
    <text x="22" y="250" class="dimtxt" transform="rotate(-90 22 250)">7.40 m GEAR HEIGHT</text>

    <!-- callouts -->
    <path d="M180 75 L180 138" class="leader"/><text x="95" y="68" class="label">COCKPIT WINDOWS</text>
    <path d="M372 74 L368 146" class="leader"/><text x="330" y="66" class="label">EVA AIRLOCK</text>
    <path d="M520 68 L525 104" class="leader"/><text x="460" y="58" class="label">ARRAY CASSETTE</text>
    <path d="M694 62 L684 106" class="leader"/><text x="632" y="52" class="label">THERMAL RADIATOR</text>
    <path d="M807 70 L790 160" class="leader"/><text x="790" y="58" class="label">AVIONICS BAY</text>
    <path d="M915 80 L915 167" class="leader"/><text x="885" y="70" class="label">MAIN ENGINES</text>
  </g>

  <!-- FRONT VIEW -->
  <g transform="translate(1260 220)">
    <text x="0" y="0" class="viewtitle">FRONT VIEW</text>
    <text x="0" y="28" class="small">LOOKING AFT • STATION 0</text>
    <line x1="220" y1="55" x2="220" y2="420" class="center"/>
    <line x1="55" y1="240" x2="385" y2="240" class="center"/>

    <circle cx="220" cy="240" r="135" class="heavy"/>
    <ellipse cx="220" cy="212" rx="88" ry="65" class="panel"/>
    <line x1="220" y1="147" x2="220" y2="277" class="thin"/>
    <line x1="160" y1="175" x2="280" y2="175" class="thin"/>
    <circle cx="220" cy="292" r="32" class="outline"/>
    <circle cx="220" cy="292" r="22" class="thin"/>
    <path d="M110 240H65 M330 240H375" class="outline"/>
    <rect x="32" y="215" width="60" height="50" fill="url(#solarCells)" stroke="#63c7ea" stroke-width="2"/>
    <rect x="348" y="215" width="60" height="50" fill="url(#solarCells)" stroke="#63c7ea" stroke-width="2"/>
    <circle cx="132" cy="135" r="5" fill="#ffb36b"/>
    <circle cx="308" cy="135" r="5" fill="#ffb36b"/>
    <circle cx="132" cy="345" r="5" fill="#ffb36b"/>
    <circle cx="308" cy="345" r="5" fill="#ffb36b"/>

    <line x1="85" y1="420" x2="355" y2="420" class="dim"/>
    <line x1="85" y1="395" x2="85" y2="430" class="ext"/>
    <line x1="355" y1="395" x2="355" y2="430" class="ext"/>
    <text x="180" y="412" class="dimtxt">6.00 m</text>
    <path d="M332 92 L295 150" class="leader"/><text x="314" y="82" class="label">RCS QUAD</text>
    <path d="M96 332 L180 292" class="leader"/><text x="18" y="345" class="label">NOSE DOCKING</text><text x="18" y="365" class="label">INTERFACE</text>
  </g>

  <!-- REAR VIEW -->
  <g transform="translate(1785 220)">
    <text x="0" y="0" class="viewtitle">REAR VIEW</text>
    <text x="0" y="28" class="small">LOOKING FORWARD • ENGINE / SERVICE FACE</text>
    <line x1="220" y1="55" x2="220" y2="420" class="center"/>
    <line x1="55" y1="240" x2="385" y2="240" class="center"/>
    <circle cx="220" cy="240" r="135" class="heavy"/>
    <circle cx="220" cy="240" r="98" class="thin"/>
    <!-- four main engines -->
    <circle cx="175" cy="195" r="34" class="engine"/>
    <circle cx="265" cy="195" r="34" class="engine"/>
    <circle cx="175" cy="285" r="34" class="engine"/>
    <circle cx="265" cy="285" r="34" class="engine"/>
    <circle cx="175" cy="195" r="18" class="thin"/>
    <circle cx="265" cy="195" r="18" class="thin"/>
    <circle cx="175" cy="285" r="18" class="thin"/>
    <circle cx="265" cy="285" r="18" class="thin"/>
    <!-- service ports -->
    <rect x="205" y="115" width="30" height="22" class="module"/>
    <circle cx="120" cy="240" r="11" class="module"/>
    <circle cx="320" cy="240" r="11" class="module"/>
    <circle cx="220" cy="340" r="11" class="module"/>
    <path d="M110 240H70 M330 240H370" class="outline"/>
    <rect x="37" y="215" width="55" height="50" class="radiator"/>
    <rect x="348" y="215" width="55" height="50" class="radiator"/>
    <path d="M342 100 L290 170" class="leader"/><text x="300" y="88" class="label">4× LOX/CH₄</text><text x="300" y="108" class="label">MAIN ENGINES</text>
    <path d="M60 340 L130 300" class="leader"/><text x="5" y="355" class="small">UMbilical / service panel</text>
  </g>

  <!-- CUTAWAY VIEW -->
  <g transform="translate(1180 780)">
    <text x="0" y="0" class="viewtitle">LONGITUDINAL CUTAWAY — SECTION A–A</text>
    <text x="0" y="28" class="small">PORT HALF REMOVED • PRIMARY STRUCTURE / PROPULSION / HABITABILITY SYSTEMS</text>

    <line x1="20" y1="220" x2="1050" y2="220" class="center"/>

    <!-- outer cutaway shell -->
    <path d="M55 220
             C85 150 130 130 200 122
             L750 122
             C825 122 880 145 935 175
             L1000 205 Q1030 220 1000 235
             L935 265 C880 295 825 318 750 318
             L200 318 C130 310 85 290 55 220Z" class="heavy"/>

    <!-- cut shell hatch upper -->
    <path d="M61 216 C90 155 135 138 202 130 L748 130 C820 130 875 151 928 180 L986 208
             L960 215 L900 192 C850 170 810 158 748 158 L202 158 C155 162 122 180 100 216Z"
          fill="url(#sectionHatch)" stroke="#4ca6c8" stroke-width="1.2"/>

    <!-- pressure vessel -->
    <path d="M90 220 C112 175 148 165 210 165 H635 C668 165 694 182 710 220 C694 258 668 275 635 275 H210 C148 275 112 265 90 220Z" class="module"/>

    <!-- cockpit / crew -->
    <path d="M90 220 C112 175 148 165 210 165 L230 177 V263 L210 275 C148 275 112 265 90 220Z" class="accent"/>
    <line x1="135" y1="205" x2="210" y2="205" class="thin"/>
    <line x1="135" y1="235" x2="210" y2="235" class="thin"/>
    <rect x="155" y="180" width="40" height="18" class="panel"/>
    <rect x="155" y="242" width="40" height="18" class="panel"/>
    <text x="104" y="302" class="tiny">CREW MODULE</text>

    <!-- docking tunnel -->
    <rect x="225" y="190" width="55" height="60" rx="12" class="module"/>
    <circle cx="252" cy="220" r="18" class="thin"/>
    <text x="228" y="286" class="tiny">DOCK TUNNEL</text>

    <!-- life support -->
    <rect x="290" y="176" width="80" height="88" class="accent"/>
    <circle cx="312" cy="198" r="10" class="thin"/>
    <circle cx="345" cy="198" r="10" class="thin"/>
    <path d="M303 226H356 M303 238H356" class="thin"/>
    <text x="295" y="216" class="tiny">ECLSS</text>
    <text x="285" y="301" class="tiny">LIFE SUPPORT</text>

    <!-- avionics -->
    <rect x="380" y="176" width="68" height="88" class="accent"/>
    <path d="M390 188H438 M390 201H438 M390 214H438 M390 227H438 M390 240H438" class="thin"/>
    <text x="385" y="257" class="tiny">AVIONICS</text>

    <!-- cargo bay -->
    <rect x="458" y="172" width="177" height="96" rx="8" class="module"/>
    <path d="M468 184H625 M468 256H625 M515 172V268 M570 172V268" class="thin"/>
    <text x="502" y="216" class="label">CARGO</text>
    <text x="498" y="239" class="tiny">RACK / PAYLOAD</text>

    <!-- bulkhead -->
    <rect x="646" y="153" width="12" height="134" fill="url(#sectionHatch)" stroke="#7fe5ff" stroke-width="1.5"/>
    <text x="624" y="305" class="tiny">FWD PROP BULKHEAD</text>

    <!-- tanks -->
    <ellipse cx="725" cy="220" rx="60" ry="83" class="tank"/>
    <ellipse cx="830" cy="220" rx="72" ry="92" class="tank"/>
    <line x1="725" y1="137" x2="725" y2="303" class="center"/>
    <line x1="830" y1="128" x2="830" y2="312" class="center"/>
    <text x="697" y="217" class="label">CH₄</text>
    <text x="801" y="217" class="label">LOX</text>
    <text x="690" y="238" class="tiny">TANK T-1</text>
    <text x="796" y="238" class="tiny">TANK T-2</text>

    <!-- feed lines -->
    <path d="M725 302 V335 H922 V255" class="med"/>
    <path d="M830 312 V348 H948 V258" class="med"/>
    <circle cx="760" cy="335" r="6" fill="#7fe5ff"/>
    <circle cx="870" cy="348" r="6" fill="#7fe5ff"/>

    <!-- engine manifold and engines -->
    <rect x="900" y="174" width="60" height="92" class="accent"/>
    <path d="M910 190H950 M910 205H950 M910 220H950 M910 235H950 M910 250H950" class="thin"/>
    <g transform="translate(998 188) rotate(-90) scale(.72)"><use href="#engineBell"/></g>
    <g transform="translate(998 252) rotate(-90) scale(.72)"><use href="#engineBell"/></g>

    <!-- upper radiator loop -->
    <path d="M330 145 H600 C645 145 675 132 705 112 H880" class="med"/>
    <rect x="720" y="93" width="160" height="24" class="radiator"/>
    <path d="M730 96V114 M747 96V114 M764 96V114 M781 96V114 M798 96V114 M815 96V114 M832 96V114 M849 96V114 M866 96V114" class="thin"/>

    <!-- section A-A marks -->
    <line x1="650" y1="80" x2="650" y2="350" class="section"/>
    <circle cx="650" cy="70" r="18" class="callnum"/><text x="650" y="70" class="calltxt">A</text>
    <circle cx="650" cy="360" r="18" class="callnum"/><text x="650" y="360" class="calltxt">A</text>

    <!-- structural frames -->
    <path d="M210 160V280 M280 158V282 M370 158V282 M450 158V282 M640 150V290 M905 160V280" class="hidden"/>
    <text x="460" y="345" class="tiny">RING FRAMES @ 0.75 m TYP.</text>

    <!-- cutaway callouts -->
    <path d="M125 88 L150 165" class="leader"/><text x="36" y="78" class="label">COCKPIT / FLIGHT DECK</text>
    <path d="M328 83 L330 176" class="leader"/><text x="260" y="73" class="label">ECLSS</text>
    <path d="M417 83 L414 176" class="leader"/><text x="385" y="73" class="label">AVIONICS</text>
    <path d="M546 83 L546 171" class="leader"/><text x="487" y="73" class="label">CARGO BAY</text>
    <path d="M762 62 L725 137" class="leader"/><text x="695" y="52" class="label">METHANE TANK</text>
    <path d="M885 62 L830 128" class="leader"/><text x="840" y="52" class="label">LOX TANK</text>
    <path d="M968 100 L938 174" class="leader"/><text x="930" y="90" class="label">ENGINE CTRL.</text>

    <!-- baseline dimensions -->
    <line x1="55" y1="410" x2="1030" y2="410" class="dim"/>
    <line x1="55" y1="385" x2="55" y2="425" class="ext"/>
    <line x1="1030" y1="385" x2="1030" y2="425" class="ext"/>
    <text x="495" y="402" class="dimtxt">28 000 mm OVERALL</text>

    <!-- station ticks -->
    <line x1="55" y1="370" x2="55" y2="390" class="ext"/>
    <line x1="230" y1="370" x2="230" y2="390" class="ext"/>
    <line x1="405" y1="370" x2="405" y2="390" class="ext"/>
    <line x1="580" y1="370" x2="580" y2="390" class="ext"/>
    <line x1="755" y1="370" x2="755" y2="390" class="ext"/>
    <line x1="930" y1="370" x2="930" y2="390" class="ext"/>
    <text x="42" y="365" class="tiny">STA 0</text>
    <text x="208" y="365" class="tiny">STA 5</text>
    <text x="383" y="365" class="tiny">STA 10</text>
    <text x="558" y="365" class="tiny">STA 15</text>
    <text x="733" y="365" class="tiny">STA 20</text>
    <text x="908" y="365" class="tiny">STA 25</text>
  </g>

  <!-- DETAIL / SYSTEM NOTES -->
  <g transform="translate(85 1310)">
    <rect x="0" y="0" width="1040" height="385" fill="#081a2c" stroke="#7fe5ff" stroke-width="1.8"/>
    <text x="22" y="34" class="viewtitle">GENERAL NOTES / SYSTEM LEGEND</text>
    <line x1="20" y1="47" x2="1018" y2="47" class="thin"/>

    <circle cx="42" cy="86" r="14" class="callnum"/><text x="42" y="86" class="calltxt">1</text>
    <text x="70" y="92" class="small">PRIMARY PRESSURE HULL: Al-Li ISOGRID, 6.0 m MAX DIA.</text>
    <circle cx="42" cy="122" r="14" class="callnum"/><text x="42" y="122" class="calltxt">2</text>
    <text x="70" y="128" class="small">MAIN PROPULSION: 4 × LOX/CH₄ VACUUM ENGINES, GIMBALED.</text>
    <circle cx="42" cy="158" r="14" class="callnum"/><text x="42" y="158" class="calltxt">3</text>
    <text x="70" y="164" class="small">RCS: 16 × DUAL-MODE THRUSTERS, QUAD CLUSTERS.</text>
    <circle cx="42" cy="194" r="14" class="callnum"/><text x="42" y="194" class="calltxt">4</text>
    <text x="70" y="200" class="small">POWER: 2 × DEPLOYABLE SOLAR WINGS; 86 m² TOTAL ACTIVE AREA.</text>
    <circle cx="42" cy="230" r="14" class="callnum"/><text x="42" y="230" class="calltxt">5</text>
    <text x="70" y="236" class="small">THERMAL: DUAL-PHASE PUMPED LOOP + 2 × DEPLOYABLE RADIATORS.</text>
    <circle cx="42" cy="266" r="14" class="callnum"/><text x="42" y="266" class="calltxt">6</text>
    <text x="70" y="272" class="small">ECLSS: 6 CREW / 21 DAY NOMINAL CLOSED-LOOP HABITABILITY.</text>
    <circle cx="42" cy="302" r="14" class="callnum"/><text x="42" y="302" class="calltxt">7</text>
    <text x="70" y="308" class="small">LANDING GEAR: 3-POINT RETRACTABLE, 1.8 g LIMIT LOAD.</text>

    <!-- line legend -->
    <line x1="620" y1="82" x2="700" y2="82" class="heavy"/><text x="720" y="88" class="small">VISIBLE / PRIMARY OUTLINE</text>
    <line x1="620" y1="120" x2="700" y2="120" class="hidden"/><text x="720" y="126" class="small">HIDDEN FEATURE</text>
    <line x1="620" y1="158" x2="700" y2="158" class="center"/><text x="720" y="164" class="small">CENTERLINE / DATUM</text>
    <line x1="620" y1="196" x2="700" y2="196" class="section"/><text x="720" y="202" class="small">SECTION PLANE</text>
    <line x1="620" y1="234" x2="700" y2="234" class="dim"/><text x="720" y="240" class="small">DIMENSION</text>
    <rect x="620" y="258" width="80" height="32" fill="url(#sectionHatch)" stroke="#7fe5ff"/><text x="720" y="281" class="small">CUT MATERIAL / STRUCTURE</text>

    <text x="620" y="330" class="tiny">ALL DIMENSIONS IN mm UNLESS NOTED.</text>
    <text x="620" y="350" class="tiny">DO NOT SCALE DRAWING. CONCEPTUAL ENGINEERING SCHEMATIC.</text>
  </g>

  <!-- SCALE BAR / AXES -->
  <g transform="translate(1190 1305)">
    <text x="0" y="0" class="viewtitle">REFERENCE SCALE</text>
    <line x1="0" y1="38" x2="300" y2="38" class="heavy"/>
    <line x1="0" y1="28" x2="0" y2="48" class="outline"/>
    <line x1="60" y1="28" x2="60" y2="48" class="outline"/>
    <line x1="120" y1="28" x2="120" y2="48" class="outline"/>
    <line x1="180" y1="28" x2="180" y2="48" class="outline"/>
    <line x1="240" y1="28" x2="240" y2="48" class="outline"/>
    <line x1="300" y1="28" x2="300" y2="48" class="outline"/>
    <text x="-4" y="72" class="small">0</text>
    <text x="54" y="72" class="small">2</text>
    <text x="114" y="72" class="small">4</text>
    <text x="174" y="72" class="small">6</text>
    <text x="234" y="72" class="small">8</text>
    <text x="286" y="72" class="small">10 m</text>

    <text x="0" y="125" class="viewtitle">BODY AXES</text>
    <line x1="50" y1="195" x2="145" y2="195" class="leader"/>
    <line x1="50" y1="195" x2="50" y2="115" class="leader"/>
    <circle cx="50" cy="195" r="6" fill="#ffffff"/>
    <text x="153" y="201" class="label">+X FWD</text>
    <text x="20" y="110" class="label">+Z UP</text>
    <text x="18" y="225" class="small">+Y STARBOARD (OUT OF SHEET)</text>
  </g>

  <!-- TITLE BLOCK -->
  <g transform="translate(1530 1305)">
    <rect x="0" y="0" width="790" height="390" fill="#081a2c" stroke="#d7f5ff" stroke-width="2"/>
    <line x1="0" y1="235" x2="790" y2="235" class="thin"/>
    <line x1="540" y1="235" x2="540" y2="390" class="thin"/>
    <line x1="0" y1="310" x2="790" y2="310" class="thin"/>
    <line x1="300" y1="310" x2="300" y2="390" class="thin"/>
    <text x="24" y="46" class="sheettitle">OTV-28</text>
    <text x="24" y="80" class="viewtitle">REUSABLE ORBITAL TRANSFER VEHICLE</text>
    <text x="24" y="112" class="txt">GENERAL ARRANGEMENT &amp; SYSTEMS SCHEMATIC</text>
    <text x="24" y="152" class="small">MISSION CLASS: CREW / CARGO / CISLUNAR LOGISTICS</text>
    <text x="24" y="178" class="small">REFERENCE CONFIGURATION: BLOCK III</text>
    <text x="24" y="205" class="small">GEOMETRIC BASELINE: L = 28.0 m / D = 6.0 m</text>

    <text x="18" y="262" class="tiny">DRAWN</text><text x="18" y="289" class="label">OPENAI TECHNICAL GRAPHICS</text>
    <text x="558" y="262" class="tiny">SCALE</text><text x="558" y="289" class="label">1:100 NOM.</text>
    <text x="18" y="337" class="tiny">DRAWING NUMBER</text><text x="18" y="370" class="label">OTV-28-GA-001</text>
    <text x="320" y="337" class="tiny">REVISION</text><text x="320" y="370" class="label">C</text>
    <text x="558" y="337" class="tiny">SHEET</text><text x="558" y="370" class="label">1 / 1</text>
  </g>

  <!-- outer registration marks -->
  <path d="M40 80H60 M50 70V90 M2340 80H2360 M2350 70V90 M40 1720H60 M50 1710V1730 M2340 1720H2360 M2350 1710V1730" class="outline"/>
</svg>
